<svg width="24" height="24" viewBox="0 0 24 24" fill="none" xmlns="http://www.w3.org/2000/svg">
<path d="M11.935 8.90619C12.3531 8.49235 12.9161 8.25789 13.5043 8.25264C14.0926 8.24739 14.6596 8.47176 15.085 8.87806C15.9944 9.74994 15.9757 11.2312 15.0757 12.1312L8.79442 18.2156C8.65233 18.3565 8.57163 18.5479 8.56988 18.748C8.56812 18.9481 8.64545 19.1409 8.78504 19.2843L11.4757 21.9749C11.6162 22.1142 11.8056 22.1931 12.0035 22.1949C12.2013 22.1966 12.392 22.1211 12.535 21.9843L18.76 15.8718C21.685 12.9468 21.7694 8.18431 18.8725 5.24056C18.1784 4.53452 17.3514 3.97291 16.4391 3.58811C15.5268 3.20332 14.5474 3.00297 13.5573 2.99861C12.5672 2.99425 11.5861 3.18597 10.6704 3.56272C9.75482 3.93947 8.92285 4.49378 8.22254 5.19369L2.02567 11.4656C1.88541 11.6062 1.80664 11.7967 1.80664 11.9952C1.80664 12.1938 1.88541 12.3843 2.02567 12.5249L4.71629 15.2156C4.85972 15.3552 5.05246 15.4325 5.2526 15.4307C5.45274 15.429 5.64409 15.3483 5.78504 15.2062L11.935 8.90619Z" stroke="#35383D" stroke-width="1.5" stroke-linecap="round" stroke-linejoin="round"/>
<path d="M11.8867 15.2251L15.618 18.9563" stroke="#35383D" stroke-width="1.5" stroke-linecap="round" stroke-linejoin="round"/>
<path d="M5.0625 8.3999L8.78437 12.1312" stroke="#35383D" stroke-width="1.5" stroke-linecap="round" stroke-linejoin="round"/>
</svg>
