<svg width="20" height="24" viewBox="0 0 20 24" fill="none" xmlns="http://www.w3.org/2000/svg">
<path d="M14.6212 0C14.677 0 14.7329 0 14.7919 0C14.9289 1.69253 14.2829 2.95719 13.4977 3.87301C12.7273 4.78251 11.6724 5.6646 9.96617 5.53076C9.85235 3.86247 10.4994 2.69161 11.2835 1.7779C12.0107 0.92636 13.3439 0.168621 14.6212 0Z" fill="white"/>
<path d="M19.7851 17.6164C19.7851 17.6332 19.7851 17.648 19.7851 17.6638C19.3056 19.1161 18.6216 20.3607 17.7869 21.5157C17.025 22.5643 16.0912 23.9755 14.424 23.9755C12.9833 23.9755 12.0264 23.0491 10.5499 23.0238C8.98808 22.9985 8.12917 23.7984 6.70116 23.9997C6.53781 23.9997 6.37446 23.9997 6.21427 23.9997C5.16566 23.848 4.3194 23.0175 3.70288 22.2693C1.88493 20.0582 0.480112 17.2022 0.21875 13.5474C0.21875 13.189 0.21875 12.8318 0.21875 12.4735C0.329407 9.85772 1.60039 7.73099 3.28975 6.7003C4.18134 6.15228 5.407 5.68541 6.77177 5.89408C7.35668 5.98471 7.95423 6.18495 8.478 6.38308C8.97438 6.57383 9.59512 6.91213 10.1832 6.89421C10.5815 6.88262 10.9778 6.67501 11.3793 6.52852C12.5555 6.1038 13.7084 5.61691 15.2281 5.8456C17.0545 6.12172 18.3507 6.93321 19.1517 8.18521C17.6067 9.16848 16.3853 10.6502 16.5939 13.1806C16.7794 15.4791 18.1157 16.8239 19.7851 17.6164Z" fill="white"/>
</svg>
