<svg width="24" height="25" viewBox="0 0 24 25" fill="none" xmlns="http://www.w3.org/2000/svg">
<path d="M12 8.4834C12 7.68775 12.3161 6.92469 12.8787 6.36208C13.4413 5.79947 14.2044 5.4834 15 5.4834H21C21.1989 5.4834 21.3897 5.56242 21.5303 5.70307C21.671 5.84372 21.75 6.03449 21.75 6.2334V18.2334C21.75 18.4323 21.671 18.6231 21.5303 18.7637C21.3897 18.9044 21.1989 18.9834 21 18.9834H15C14.2044 18.9834 13.4413 19.2995 12.8787 19.8621C12.3161 20.4247 12 21.1877 12 21.9834" stroke="#35383D" stroke-width="1.5" stroke-linecap="round" stroke-linejoin="round"/>
<path d="M2.25 18.2334C2.25 18.4323 2.32902 18.6231 2.46967 18.7637C2.61032 18.9044 2.80109 18.9834 3 18.9834H9C9.79565 18.9834 10.5587 19.2995 11.1213 19.8621C11.6839 20.4247 12 21.1877 12 21.9834V8.4834C12 7.68775 11.6839 6.92469 11.1213 6.36208C10.5587 5.79947 9.79565 5.4834 9 5.4834H3C2.80109 5.4834 2.61032 5.56242 2.46967 5.70307C2.32902 5.84372 2.25 6.03449 2.25 6.2334V18.2334Z" stroke="#35383D" stroke-width="1.5" stroke-linecap="round" stroke-linejoin="round"/>
</svg>
