<svg width="14" height="10" viewBox="0 0 14 10" fill="none" xmlns="http://www.w3.org/2000/svg">
<path d="M1 0C0.447715 0 0 0.447716 0 1V2H14V1C14 0.447715 13.5523 0 13 0H1Z" fill="#35383D"/>
<path fill-rule="evenodd" clip-rule="evenodd" d="M14 3.5H0V9C0 9.55229 0.447716 10 1 10H13C13.5523 10 14 9.55228 14 9V3.5ZM9.33333 7.66667C9.33333 7.29848 9.63181 7 10 7H11.6667C12.0349 7 12.3333 7.29848 12.3333 7.66667C12.3333 8.03486 12.0349 8.33333 11.6667 8.33333H10C9.63181 8.33333 9.33333 8.03486 9.33333 7.66667ZM6.33333 7C5.96514 7 5.66667 7.29848 5.66667 7.66667C5.66667 8.03486 5.96514 8.33333 6.33333 8.33333H7C7.36819 8.33333 7.66667 8.03486 7.66667 7.66667C7.66667 7.29848 7.36819 7 7 7H6.33333Z" fill="#35383D"/>
</svg>
