<svg width="20" height="24" viewBox="0 0 20 24" fill="none" xmlns="http://www.w3.org/2000/svg">
<path d="M6.09375 17.7266L3.52344 19.8828C3.43238 19.9582 3.32183 20.0061 3.20461 20.0212C3.08738 20.0363 2.96829 20.0178 2.86115 19.9679C2.75401 19.918 2.66321 19.8387 2.59929 19.7393C2.53536 19.6399 2.50094 19.5244 2.5 19.4063V7C2.5 6.83424 2.56585 6.67527 2.68306 6.55806C2.80027 6.44085 2.95924 6.375 3.125 6.375H16.875C17.0408 6.375 17.1997 6.44085 17.3169 6.55806C17.4342 6.67527 17.5 6.83424 17.5 7V17C17.5 17.1658 17.4342 17.3247 17.3169 17.4419C17.1997 17.5592 17.0408 17.625 16.875 17.625H6.38281L6.09375 17.7266Z" stroke="#35383D" stroke-width="1.5" stroke-linecap="round" stroke-linejoin="round"/>
<path d="M7.5 10.75H12.5" stroke="#35383D" stroke-width="1.5" stroke-linecap="round" stroke-linejoin="round"/>
<path d="M7.5 13.25H12.5" stroke="#35383D" stroke-width="1.5" stroke-linecap="round" stroke-linejoin="round"/>
</svg>
