<svg width="20" height="24" viewBox="0 0 20 24" fill="none" xmlns="http://www.w3.org/2000/svg">
<path d="M12.5 5.125H15.625C15.7908 5.125 15.9497 5.19085 16.0669 5.30806C16.1842 5.42527 16.25 5.58424 16.25 5.75V18.875C16.25 19.0408 16.1842 19.1997 16.0669 19.3169C15.9497 19.4342 15.7908 19.5 15.625 19.5H4.375C4.20924 19.5 4.05027 19.4342 3.93306 19.3169C3.81585 19.1997 3.75 19.0408 3.75 18.875V5.75C3.75 5.58424 3.81585 5.42527 3.93306 5.30806C4.05027 5.19085 4.20924 5.125 4.375 5.125H7.5" stroke="#35383D" stroke-width="1.5" stroke-linecap="round" stroke-linejoin="round"/>
<path d="M6.875 7.625V7C6.875 6.1712 7.20424 5.37634 7.79029 4.79029C8.37634 4.20424 9.1712 3.875 10 3.875C10.8288 3.875 11.6237 4.20424 12.2097 4.79029C12.7958 5.37634 13.125 6.1712 13.125 7V7.625H6.875Z" stroke="#35383D" stroke-width="1.5" stroke-linecap="round" stroke-linejoin="round"/>
</svg>
