<svg width="24" height="24" viewBox="0 0 24 24" fill="none" xmlns="http://www.w3.org/2000/svg">
<path d="M9 20.2504H4.5C4.30109 20.2504 4.11032 20.1714 3.96967 20.0307C3.82902 19.8901 3.75 19.6993 3.75 19.5004V15.311C3.75 15.2125 3.7694 15.115 3.80709 15.024C3.84478 14.933 3.90003 14.8503 3.96967 14.7807L15.2197 3.5307C15.3603 3.39005 15.5511 3.31104 15.75 3.31104C15.9489 3.31104 16.1397 3.39005 16.2803 3.5307L20.4697 7.72004C20.6103 7.8607 20.6893 8.05146 20.6893 8.25037C20.6893 8.44929 20.6103 8.64005 20.4697 8.7807L9 20.2504Z" stroke="#35383D" stroke-width="1.5" stroke-linecap="round" stroke-linejoin="round"/>
<path d="M12.75 6L18 11.25" stroke="#35383D" stroke-width="1.5" stroke-linecap="round" stroke-linejoin="round"/>
</svg>
