<svg width="24" height="24" viewBox="0 0 24 24" fill="none" xmlns="http://www.w3.org/2000/svg">
<g clip-path="url(#clip0_230_182)">
<path d="M19.2479 19.2478C19.177 19.3188 19.1589 19.373 19.1918 19.3083C19.2113 19.27 19.2397 19.2077 19.2768 19.1175C19.3503 18.9387 19.4419 18.6898 19.5456 18.3875C19.7521 17.7852 19.9948 17.0054 20.2202 16.2248C20.4457 15.4434 20.6504 14.6734 20.7826 14.0895C20.8493 13.7948 20.8938 13.5637 20.9149 13.4079C20.92 13.3703 20.9232 13.3406 20.9251 13.3182C20.927 13.2947 20.927 13.2848 20.927 13.2853C20.927 13.286 20.927 13.2923 20.928 13.3032C20.9288 13.3134 20.931 13.3335 20.9365 13.3602C20.9417 13.3854 20.9737 13.549 21.1233 13.6986L22.1839 12.6379C22.3489 12.8029 22.3923 12.9931 22.4052 13.0555C22.423 13.1411 22.4265 13.2191 22.4269 13.2729C22.4278 13.3831 22.4159 13.5013 22.4014 13.6088C22.3715 13.8302 22.3155 14.1118 22.2455 14.4207C22.1044 15.044 21.8911 15.8447 21.6613 16.6409C21.4312 17.4379 21.1811 18.2423 20.9644 18.8741C20.8565 19.1888 20.7539 19.4694 20.6641 19.688C20.6195 19.7964 20.5739 19.8997 20.5287 19.9885C20.497 20.0507 20.4237 20.1934 20.3086 20.3085L19.2479 19.2478ZM21.1233 13.6986L10.3015 2.87677L11.3621 1.81611L22.1839 12.6379L21.1233 13.6986ZM10.3015 2.87677C10.451 3.02635 10.6146 3.05832 10.6399 3.06355C10.6666 3.06909 10.6866 3.07121 10.6969 3.07208C10.7077 3.07301 10.7141 3.07306 10.7147 3.07306C10.7152 3.07307 10.7053 3.07305 10.6819 3.07499C10.6594 3.07685 10.6297 3.08007 10.5921 3.08515C10.4363 3.10621 10.2052 3.15076 9.91058 3.21748C9.32668 3.34968 8.55662 3.55432 7.7752 3.77989C6.99468 4.00521 6.21484 4.24794 5.61254 4.45449C5.31021 4.55817 5.06136 4.64976 4.88256 4.72328C4.79235 4.76037 4.73006 4.78876 4.69177 4.80824C4.62705 4.84117 4.68129 4.82307 4.75221 4.75214L3.69155 3.69148C3.80667 3.57637 3.9493 3.50302 4.01158 3.47133C4.1003 3.42619 4.20363 3.38059 4.31209 3.33599C4.53062 3.24613 4.81126 3.14352 5.12596 3.0356C5.75774 2.81894 6.56216 2.56882 7.35918 2.33874C8.1553 2.10892 8.95606 1.89563 9.57933 1.75451C9.88827 1.68456 10.1698 1.62859 10.3912 1.59867C10.4988 1.58413 10.6169 1.5722 10.7271 1.57312C10.7809 1.57356 10.8589 1.57705 10.9445 1.59481C11.0069 1.60776 11.1972 1.65117 11.3621 1.81611L10.3015 2.87677ZM4.75221 4.75214C4.82314 4.68122 4.84124 4.62698 4.80831 4.6917C4.78883 4.72999 4.76044 4.79228 4.72335 4.88249C4.64983 5.06129 4.55824 5.31014 4.45456 5.61247C4.24801 6.21477 4.00528 6.99461 3.77996 7.77513C3.55439 8.55655 3.34975 9.32661 3.21755 9.91051C3.15083 10.2052 3.10628 10.4363 3.08522 10.5921C3.08014 10.6297 3.07692 10.6593 3.07506 10.6818C3.07312 10.7052 3.07314 10.7152 3.07313 10.7146C3.07313 10.714 3.07308 10.7076 3.07215 10.6968C3.07128 10.6866 3.06916 10.6665 3.06362 10.6398C3.05839 10.6146 3.02642 10.451 2.87684 10.3014L1.81618 11.3621C1.65124 11.1971 1.60783 11.0069 1.59488 10.9445C1.57712 10.8588 1.57363 10.7809 1.57319 10.727C1.57227 10.6169 1.5842 10.4987 1.59874 10.3911C1.62866 10.1698 1.68463 9.8882 1.75458 9.57926C1.8957 8.95599 2.10899 8.15523 2.33881 7.35911C2.56889 6.56209 2.81901 5.75767 3.03567 5.12589C3.14359 4.81119 3.2462 4.53055 3.33606 4.31202C3.38066 4.20356 3.42626 4.10023 3.4714 4.01151C3.50309 3.94923 3.57644 3.8066 3.69155 3.69148L4.75221 4.75214ZM2.87684 10.3014L13.6987 21.1232L12.638 22.1839L1.81618 11.3621L2.87684 10.3014ZM13.6987 21.1232C13.5491 20.9736 13.3855 20.9417 13.3603 20.9364C13.3335 20.9309 13.3135 20.9288 13.3032 20.9279C13.2924 20.927 13.2861 20.9269 13.2854 20.9269C13.2849 20.9269 13.2948 20.9269 13.3182 20.925C13.3407 20.9231 13.3704 20.9199 13.408 20.9148C13.5638 20.8938 13.7949 20.8492 14.0895 20.7825C14.6734 20.6503 15.4435 20.4457 16.2249 20.2201C17.0054 19.9948 17.7853 19.752 18.3876 19.5455C18.6899 19.4418 18.9388 19.3502 19.1176 19.2767C19.2078 19.2396 19.2701 19.2112 19.3083 19.1917C19.3731 19.1588 19.3188 19.1769 19.2479 19.2478L20.3086 20.3085C20.1934 20.4236 20.0508 20.497 19.9885 20.5286C19.8998 20.5738 19.7965 20.6194 19.688 20.664C19.4695 20.7538 19.1889 20.8565 18.8742 20.9644C18.2424 21.181 17.438 21.4312 16.6409 21.6612C15.8448 21.8911 15.0441 22.1043 14.4208 22.2455C14.1118 22.3154 13.8303 22.3714 13.6089 22.4013C13.5013 22.4159 13.3832 22.4278 13.273 22.4269C13.2192 22.4264 13.1412 22.4229 13.0556 22.4052C12.9932 22.3922 12.8029 22.3488 12.638 22.1839L13.6987 21.1232ZM13.2375 17.4801L17.4801 13.2374L18.5408 14.2981L14.2982 18.5407L13.2375 17.4801ZM17.4801 14.2981L9.70196 6.51991L10.7626 5.45925L18.5408 13.2374L17.4801 14.2981ZM10.7626 6.51991L6.51998 10.7626L5.45932 9.70189L9.70196 5.45925L10.7626 6.51991ZM6.51998 9.70189L14.2982 17.4801L13.2375 18.5407L5.45932 10.7626L6.51998 9.70189ZM12.4283 21.5318L13.0278 17.8886L14.5079 18.1322L13.9084 21.7753L12.4283 21.5318ZM17.8887 13.0277L21.5318 12.4282L21.7754 13.9083L18.1322 14.5078L17.8887 13.0277ZM9.49224 5.8678L10.0917 2.22466L11.5718 2.46822L10.9723 6.11136L9.49224 5.8678ZM6.11143 10.9723L2.46829 11.5718L2.22473 10.0917L5.86787 9.49217L6.11143 10.9723ZM13.9795 17.2909L19.9899 19.0586L19.5666 20.4977L13.5562 18.7299L13.9795 17.2909ZM18.73 13.5561L20.4978 19.5665L19.0587 19.9898L17.2909 13.9794L18.73 13.5561ZM10.0207 6.7091L4.01026 4.94134L4.43351 3.50229L10.4439 5.27006L10.0207 6.7091ZM4.94141 4.01019L6.70917 10.0206L5.27013 10.4438L3.50236 4.43344L4.94141 4.01019Z" fill="#35383D"/>
</g>
<defs>
<clipPath id="clip0_230_182">
<rect width="24" height="24" fill="white"/>
</clipPath>
</defs>
</svg>
