<svg width="48" height="48" viewBox="0 0 48 48" fill="none" xmlns="http://www.w3.org/2000/svg">
<path opacity="0.2" d="M6 39L11.6625 22.0312C11.7612 21.7312 11.9521 21.47 12.208 21.2848C12.4638 21.0997 12.7716 21 13.0875 21H39V16.5C39 16.1022 38.842 15.7206 38.5607 15.4393C38.2794 15.158 37.8978 15 37.5 15H24.5062C24.1819 14.9987 23.8665 14.8935 23.6063 14.7L18.3937 10.8C18.1335 10.6065 17.8181 10.5013 17.4938 10.5H7.5C7.10218 10.5 6.72064 10.658 6.43934 10.9393C6.15804 11.2206 6 11.6022 6 12V39Z" fill="#B0654D"/>
<path d="M6 39V12C6 11.6022 6.15804 11.2206 6.43934 10.9393C6.72064 10.658 7.10218 10.5 7.5 10.5H17.4938C17.8181 10.5013 18.1335 10.6065 18.3937 10.8L23.6063 14.7C23.8665 14.8935 24.1819 14.9987 24.5062 15H37.5C37.8978 15 38.2794 15.158 38.5607 15.4393C38.842 15.7206 39 16.1022 39 16.5V21" stroke="#B0654D" stroke-width="3" stroke-linecap="round" stroke-linejoin="round"/>
<path d="M6 39L11.6625 22.0312C11.7612 21.7312 11.9521 21.47 12.208 21.2848C12.4638 21.0997 12.7716 21 13.0875 21H42.9187C43.1559 21 43.3898 21.0562 43.601 21.1641C43.8122 21.2719 43.9949 21.4284 44.134 21.6205C44.2731 21.8126 44.3646 22.035 44.401 22.2694C44.4375 22.5038 44.4179 22.7434 44.3438 22.9688L39 39H6Z" fill="white" stroke="#B0654D" stroke-width="3" stroke-linecap="round" stroke-linejoin="round"/>
</svg>
