<svg width="163" height="168" viewBox="0 0 163 168" fill="none" xmlns="http://www.w3.org/2000/svg">
<path d="M104.779 119.165C114.779 102.312 133.757 100.4 121.549 72.8561C102.764 30.4732 87.2898 17.0757 59.5087 26.5998C46.9456 30.9068 5.65893 50.3618 3.82239 70.6469C4.39622 92.954 20.4486 80.5575 24.4757 107.054C28.5029 133.55 40.9167 137.481 61.2452 137.808C81.5737 138.135 99.7061 127.714 104.779 119.165Z" fill="#D49A9A"/>
<path d="M91.1491 149.002C109.776 139.691 127.835 148.896 132.763 117.262C140.346 68.5853 134.221 47.7149 103.918 40.2522C90.215 36.8774 42.1331 30.5236 28.8281 47.5952C16.5144 67.8597 37.9874 66.0116 26.3511 92.0054C14.7148 117.999 23.5479 128.65 41.5262 140.631C59.5045 152.612 81.7003 153.726 91.1491 149.002Z" fill="#CCE4EC"/>
<path d="M28.7346 125.931C29.9263 123.674 32.2754 121.141 34.474 121.596C36.9619 122.111 40.6538 124.949 40.5007 130.542C40.3476 136.135 53.4082 136.019 51.9707 145.814C51.5838 148.45 40.4729 159.444 33.5885 150.985C29.5323 146 23.4456 146.983 19.7669 145.121C16.0882 143.259 19.7425 135.292 22.9479 134.171C26.1533 133.05 27.1068 129.015 28.7346 125.931Z" fill="#F2B14E"/>
<path d="M103.19 68.1604L53.8705 76.2104C53.7134 76.2328 53.5669 76.3026 53.4505 76.4104C53.3319 76.5152 53.2475 76.6532 53.2082 76.8066C53.169 76.9599 53.1768 77.1215 53.2305 77.2704C53.2877 77.4173 53.3846 77.5454 53.5105 77.6404L71.1405 91.4404L90.1405 77.3004C90.2601 77.2115 90.396 77.147 90.5405 77.1104C90.6821 77.0792 90.8288 77.0792 90.9705 77.1104C91.1178 77.1313 91.2601 77.1787 91.3905 77.2504C91.518 77.3255 91.6273 77.428 91.7105 77.5504C91.7979 77.6664 91.8614 77.7987 91.8975 77.9394C91.9335 78.0801 91.9413 78.2266 91.9205 78.3704C91.8797 78.6639 91.7253 78.9297 91.4905 79.1104L72.4705 93.2304L80.7705 114C80.8334 114.144 80.9379 114.266 81.0705 114.35C81.1947 114.443 81.3457 114.492 81.5005 114.49C81.6535 114.498 81.8057 114.463 81.9405 114.39C82.0733 114.309 82.1834 114.196 82.2605 114.06L104 69.2704C104.035 69.1359 104.035 68.9949 104 68.8604C103.989 68.7247 103.937 68.5956 103.85 68.4904C103.769 68.3803 103.663 68.2912 103.54 68.2304C103.43 68.1813 103.311 68.1574 103.19 68.1604Z" fill="#105368"/>
<path d="M65.2509 98.8498C65.0515 98.8816 64.8472 98.8573 64.6609 98.7798C64.4698 98.7081 64.3032 98.5831 64.1809 98.4198C64.0124 98.1763 63.9443 97.8771 63.9909 97.5847C64.0374 97.2922 64.195 97.029 64.4309 96.8498L68.0009 94.1898C68.1204 94.1021 68.2563 94.0391 68.4006 94.0048C68.5449 93.9704 68.6946 93.9654 68.8409 93.9898C69.1341 94.0381 69.3984 94.1952 69.5809 94.4298C69.749 94.6679 69.8205 94.961 69.7809 95.2498C69.7337 95.5383 69.5803 95.7988 69.3509 95.9798L65.7209 98.6498C65.5841 98.7561 65.4222 98.825 65.2509 98.8498Z" fill="#105368"/>
<path d="M52.2501 113.431C52.1088 113.465 51.9613 113.465 51.8201 113.431C51.6748 113.403 51.5358 113.349 51.4101 113.271C51.2819 113.205 51.1694 113.113 51.0801 113.001C50.99 112.884 50.9222 112.752 50.8801 112.611C50.8499 112.466 50.8499 112.316 50.8801 112.171C50.8995 112.038 50.94 111.91 51.0001 111.791L53.2901 107.911C53.3673 107.782 53.4701 107.67 53.5922 107.582C53.7143 107.494 53.8531 107.433 54.0001 107.401C54.2869 107.325 54.5918 107.365 54.8501 107.511C55.1021 107.662 55.285 107.906 55.3601 108.191C55.3995 108.332 55.4102 108.481 55.3913 108.627C55.3724 108.773 55.3244 108.914 55.2501 109.041L52.9401 112.911C52.788 113.169 52.5399 113.356 52.2501 113.431Z" fill="#105368"/>
<path d="M57.3112 105.07C57.1719 105.066 57.0349 105.032 56.9092 104.972C56.7835 104.912 56.6718 104.826 56.5812 104.72C56.4721 104.618 56.3897 104.491 56.3412 104.35C56.2866 104.213 56.2627 104.067 56.2712 103.92C56.2746 103.771 56.3086 103.625 56.3712 103.49C56.4335 103.36 56.5181 103.241 56.6212 103.14L59.9012 100.07C60.0052 99.9633 60.1316 99.8814 60.2712 99.8299C60.4094 99.7816 60.5549 99.7579 60.7012 99.7599C60.8468 99.7622 60.9902 99.7964 61.1212 99.8599C61.2546 99.9168 61.3741 100.002 61.4712 100.11C61.5796 100.21 61.6672 100.33 61.729 100.464C61.7908 100.598 61.8255 100.743 61.8312 100.89C61.8425 101.184 61.7384 101.471 61.5412 101.69L58.2612 104.77C58.1325 104.881 57.983 104.966 57.8212 105.02C57.6575 105.076 57.4828 105.093 57.3112 105.07Z" fill="#105368"/>
</svg>
