<svg width="25" height="24" viewBox="0 0 25 24" fill="none" xmlns="http://www.w3.org/2000/svg">
<g clip-path="url(#clip0_8375_123284)">
<path d="M4.171 3.91629C4.20097 3.72029 4.21686 3.53656 4.25552 3.35734C4.36222 2.86192 4.5828 2.42465 4.96973 2.08778C5.77234 1.38916 6.91962 1.55699 7.54242 2.45552C7.79117 2.81517 7.91975 3.22337 8.05342 3.63157C8.64724 5.44241 9.24166 7.25284 9.83668 9.06288C9.87684 9.18516 9.94368 9.27867 10.0812 9.29605C10.2311 9.31523 10.3372 9.2391 10.3872 9.10873C10.4417 8.95725 10.4857 8.80224 10.5191 8.64478C10.9777 6.6769 11.4347 4.70832 11.8903 2.73904C11.9985 2.2715 12.0974 1.80156 12.3036 1.36308C12.5269 0.887747 12.8496 0.500825 13.2959 0.215803C13.61 0.0152982 13.9499 -0.0491389 14.3038 0.0359781C14.5796 0.103113 14.8592 0.188829 15.1097 0.318303C15.7556 0.652477 16.0433 1.22342 16.0949 1.92983C16.0982 1.97539 16.1018 2.01974 16.1066 2.08478C16.3343 2.08478 16.5603 2.07039 16.7839 2.08778C17.255 2.12404 17.6926 2.26221 18.0451 2.59338C18.5102 3.03036 18.6397 3.59111 18.5495 4.19293C18.4389 4.9317 18.2836 5.66419 18.1428 6.39847C17.6396 9.02002 17.1295 11.6386 16.6565 14.2655C16.6068 14.5427 16.5199 15.0223 16.8064 15.2033C16.9688 15.3055 17.1852 15.2911 17.3572 15.2057C17.6896 15.0402 17.9489 14.6497 18.2033 14.3875C18.6829 13.8939 19.2106 13.2384 19.8394 12.9489C20.4682 12.6594 21.1809 12.6087 21.8565 12.7145C22.3522 12.7921 22.8455 13.0052 23.1617 13.394C23.5978 13.9289 23.5156 14.5811 23.1437 15.1194C22.6911 15.7745 21.9889 16.3242 21.3583 16.7977C20.0723 17.7694 19.0344 18.9487 18.2654 20.3619C15.9606 24.5964 10.4466 24.9213 6.75029 22.4364C5.27872 21.4474 4.34154 20.0037 4.11646 18.227C3.99268 17.2518 3.89527 16.2723 3.81435 15.2926C3.73103 14.2805 3.68608 13.2651 3.61684 12.2518C3.56499 11.4953 3.3558 10.7763 3.10914 10.0612C2.7402 8.99304 2.40782 7.912 2.06196 6.83575C1.9902 6.60476 1.98059 6.35893 2.03409 6.12304C2.14648 5.59106 2.31731 5.08006 2.6335 4.6299C2.94969 4.17974 3.39716 3.94776 3.94802 3.91689C4.02025 3.9127 4.09338 3.91629 4.171 3.91629ZM6.08764 10.5353C6.05846 10.5441 6.027 10.5412 5.99996 10.5272C5.97292 10.5131 5.95244 10.489 5.94288 10.4601V10.4601C5.63957 9.53042 5.33647 8.60073 5.03356 7.67103C4.76382 6.84624 4.49948 6.02054 4.22435 5.19785C4.08649 4.78455 3.88298 4.68834 3.46639 5.01233C3.44019 5.03323 3.41646 5.05707 3.39566 5.08336C3.06598 5.52453 2.85319 6.01485 2.97247 6.56841C3.08977 7.10022 3.24379 7.62327 3.43342 8.13378C4.14493 10.0747 4.53605 12.0773 4.63225 14.1387C4.67631 15.0702 4.64754 16.005 4.77701 16.9323C4.8876 17.7235 4.9988 18.5145 5.24725 19.2775C5.90241 21.288 7.90326 22.4433 9.85706 22.904C12.1136 23.4348 14.3773 23.2097 16.1482 21.6071C16.8411 20.9799 17.3731 20.2285 17.8209 19.413C18.304 18.5318 18.8843 17.7226 19.6638 17.0753C20.1224 16.6946 20.5998 16.3371 21.0625 15.9612C21.4346 15.6622 21.7875 15.3402 22.1193 14.9971C22.3171 14.7903 22.479 14.5212 22.4568 14.2358C22.425 13.857 22.0633 13.5732 21.6898 13.5018C20.2812 13.2339 19.4657 14.2946 18.613 15.2117C18.1722 15.6861 17.2308 16.6176 16.5031 16.2984C15.0345 15.6537 16.0721 12.5596 16.2681 11.5349C16.6505 9.53581 17.0402 7.53826 17.422 5.53891C17.5233 5.00903 17.6204 4.47765 17.6917 3.94327C17.7463 3.54046 17.5524 3.20359 17.1864 3.04414C17.0123 2.97175 16.8276 2.92842 16.6394 2.91587C16.3697 2.89429 16.2157 3.01058 16.1299 3.26983C16.0757 3.43586 16.0436 3.60939 16.0002 3.77933C15.6405 5.19215 15.2803 6.60507 14.9194 8.0181L14.6275 9.16328C14.6171 9.20391 14.5912 9.23885 14.5553 9.26063C14.5195 9.28242 14.4766 9.28932 14.4357 9.27986C14.2831 9.2445 14.136 9.21033 13.9861 9.17527C13.7742 9.12462 13.7542 9.09135 13.8024 8.87136C14.222 6.95563 14.6455 5.0408 15.0588 3.12357C15.1391 2.75043 15.2167 2.3698 15.229 1.99067C15.2455 1.47188 14.9446 1.13591 14.4303 1.00164C13.8836 0.858676 13.4826 0.99804 13.2219 1.46558C13.084 1.71031 12.9795 1.97238 12.9111 2.24482C12.5394 3.77333 12.1849 5.30664 11.824 6.83815C11.6124 7.73727 11.4125 8.63819 11.1848 9.53252C10.975 10.3582 9.99612 10.6504 9.4003 10.0816C9.20669 9.89666 9.11139 9.6581 9.02987 9.41024C8.3795 7.43436 7.72724 5.45899 7.07307 3.48412C7.00733 3.28228 6.91372 3.09061 6.79495 2.91467C6.44309 2.40517 5.83588 2.37939 5.43038 2.84814C5.04675 3.28961 4.9958 3.79611 5.14655 4.34308C5.62269 6.07359 6.09693 7.8046 6.56927 9.53612C6.62921 9.7579 6.68915 9.97998 6.75119 10.2081C6.76008 10.2406 6.75583 10.2753 6.73934 10.3048C6.72286 10.3342 6.69547 10.356 6.66307 10.3654L6.08764 10.5353Z" fill="#35383D"/>
<path d="M14.1209 13.7425C14.2707 13.7362 14.4242 13.7344 14.5773 13.7362C14.821 13.7395 14.9921 13.907 14.9945 14.1417C14.9972 14.3917 14.8348 14.5613 14.5857 14.5682C13.4031 14.5949 12.3535 14.718 11.3357 15.3963C10.6383 15.8599 9.93126 16.7048 9.53744 17.6117C9.36271 18.0142 9.30786 18.4332 8.89637 18.3802C8.6521 18.3484 8.60355 18.0082 8.66919 17.796C9.01865 16.6694 9.74814 15.7433 10.6568 14.9908C11.6501 14.1687 12.8489 13.7952 14.1209 13.7425Z" fill="#35383D"/>
</g>
<defs>
<clipPath id="clip0_8375_123284">
<rect width="21.4582" height="24" fill="white" transform="translate(2)"/>
</clipPath>
</defs>
</svg>
