<svg width="24" height="25" viewBox="0 0 24 25" fill="none" xmlns="http://www.w3.org/2000/svg">
<path d="M15.7485 12.2461V7.37109C15.7485 6.87381 15.946 6.3969 16.2977 6.04527C16.6493 5.69364 17.1262 5.49609 17.6235 5.49609C18.1208 5.49609 18.5977 5.69364 18.9493 6.04527C19.3009 6.3969 19.4985 6.87381 19.4985 7.37109V15.2461C19.4985 16.231 19.3045 17.2063 18.9276 18.1162C18.5507 19.0262 17.9982 19.853 17.3018 20.5494C16.6054 21.2458 15.7786 21.7983 14.8686 22.1752C13.9587 22.5521 12.9834 22.7461 11.9985 22.7461C7.85474 22.7461 5.99849 20.4961 2.94224 14.0555C2.6936 13.6241 2.62652 13.1116 2.75574 12.6307C2.88496 12.1499 3.19991 11.74 3.63131 11.4914C4.0627 11.2428 4.57519 11.1757 5.05605 11.3049C5.5369 11.4341 5.94673 11.7491 6.19537 12.1805L8.24849 15.743V5.87109C8.24849 5.37381 8.44604 4.8969 8.79767 4.54527C9.1493 4.19364 9.62621 3.99609 10.1235 3.99609C10.6208 3.99609 11.0977 4.19364 11.4493 4.54527C11.8009 4.8969 11.9985 5.37381 11.9985 5.87109V12.2461" stroke="#35383D" stroke-width="1.5" stroke-linecap="round" stroke-linejoin="round"/>
<path d="M15.75 7.37109V4.37109C15.75 3.87381 15.5525 3.3969 15.2008 3.04527C14.8492 2.69364 14.3723 2.49609 13.875 2.49609C13.3777 2.49609 12.9008 2.69364 12.5492 3.04527C12.1975 3.3969 12 3.87381 12 4.37109V5.87109" stroke="#35383D" stroke-width="1.5" stroke-linecap="round" stroke-linejoin="round"/>
</svg>
