<svg width="20" height="20" viewBox="0 0 20 20" fill="none" xmlns="http://www.w3.org/2000/svg">
<path d="M6.20503 9.375V5.3125C6.20503 4.8981 6.04041 4.50067 5.74739 4.20765C5.45436 3.91462 5.05693 3.75 4.64253 3.75C4.22813 3.75 3.8307 3.91462 3.53768 4.20765C3.24465 4.50067 3.08003 4.8981 3.08003 5.3125V11.875C3.08003 12.6958 3.24169 13.5085 3.55578 14.2668C3.86988 15.0251 4.33025 15.7141 4.91061 16.2944C5.49098 16.8748 6.17997 17.3352 6.93826 17.6492C7.69654 17.9633 8.50927 18.125 9.33003 18.125C12.7832 18.125 14.33 16.25 16.8769 10.8828C17.0841 10.5233 17.14 10.0962 17.0323 9.69553C16.9246 9.29482 16.6622 8.95329 16.3027 8.74609C15.9432 8.53889 15.5161 8.48299 15.1154 8.59067C14.7147 8.69836 14.3732 8.96082 14.166 9.32031L12.455 12.2891V4.0625C12.455 3.6481 12.2904 3.25067 11.9974 2.95765C11.7044 2.66462 11.3069 2.5 10.8925 2.5C10.4781 2.5 10.0807 2.66462 9.78768 2.95765C9.49465 3.25067 9.33003 3.6481 9.33003 4.0625V9.375" stroke="#35383D" stroke-width="1.5" stroke-linecap="round" stroke-linejoin="round"/>
<path d="M6.20312 5.3125V2.8125C6.20312 2.3981 6.36774 2.00067 6.66077 1.70765C6.9538 1.41462 7.35122 1.25 7.76562 1.25C8.18003 1.25 8.57745 1.41462 8.87048 1.70765C9.1635 2.00067 9.32813 2.3981 9.32812 2.8125V4.0625" stroke="#35383D" stroke-width="1.5" stroke-linecap="round" stroke-linejoin="round"/>
</svg>
