<svg width="63" height="32" viewBox="0 0 63 32" fill="none" xmlns="http://www.w3.org/2000/svg">
<path d="M8.06714 16.3727L5.65099 17.0877C5.55115 17.1253 5.47128 17.2194 5.47128 17.3134V22.1674C5.47128 22.2615 5.39141 22.3555 5.29157 22.3932L2.91535 23.1081C2.81551 23.1457 2.73564 23.0893 2.73564 22.9952V18.1224C2.73564 18.0284 2.65577 17.9719 2.55593 18.0095L0.179714 18.7245C0.0798727 18.7621 0 18.8562 0 18.9502V31.8753C0 31.9694 0.0798727 32.0258 0.179714 31.9882L2.59586 31.2733C2.6957 31.2357 2.77558 31.1416 2.77558 31.0475V26.1559C2.77558 26.0619 2.85545 25.9678 2.95529 25.9302L5.3315 25.2152C5.43134 25.1776 5.51122 25.234 5.51122 25.3281V30.2197C5.51122 30.3138 5.59109 30.3702 5.69093 30.3326L8.10708 29.6177C8.20692 29.58 8.28679 29.486 8.28679 29.3919V16.4856C8.24685 16.3915 8.16698 16.3539 8.06714 16.3727ZM18.4706 13.2308L12.2205 15.0934C12.1207 15.131 12.0408 15.2251 12.0408 15.3192V28.2443C12.0408 28.3383 12.1207 28.3948 12.2205 28.3571L18.4706 26.4946C18.5704 26.4758 18.6503 26.3629 18.6503 26.2688V23.7666C18.6503 23.6725 18.5704 23.6161 18.4706 23.6537L14.9761 24.7073C14.8763 24.7449 14.7964 24.6884 14.7964 24.5944V22.5437C14.7964 22.4496 14.8763 22.3555 14.9761 22.3179L18.2509 21.3396C18.3507 21.302 18.4306 21.2079 18.4306 21.1138V18.6116C18.4306 18.5175 18.3507 18.4611 18.2509 18.4987L14.9761 19.477C14.8763 19.5146 14.7964 19.4582 14.7964 19.3641V17.3511C14.7964 17.257 14.8763 17.1629 14.9761 17.1253L18.4706 16.0717C18.5704 16.0341 18.6503 15.94 18.6503 15.8459V13.3437C18.6503 13.2685 18.5704 13.212 18.4706 13.2308ZM30.6911 9.59976L27.8157 10.5216C27.7158 10.5593 27.616 10.6533 27.596 10.7474L25.9786 15.8836C25.9586 15.9776 25.8987 15.9776 25.8388 15.9024L23.7422 11.8762C23.7022 11.801 23.5824 11.7445 23.4826 11.7822L21.0664 12.4971C20.9666 12.5347 20.9266 12.61 20.9666 12.704L24.7805 20.0602V24.4815C24.7805 24.5756 24.8604 24.632 24.9602 24.5944L27.3764 23.8795C27.4762 23.8418 27.5561 23.7478 27.5561 23.6537V19.5335C27.5561 19.5146 27.576 19.4206 27.616 19.3265L30.8109 9.71264C30.8508 9.61857 30.7909 9.56213 30.6911 9.59976ZM62.6601 0.00470346L59.7847 0.926581C59.6849 0.964209 59.585 1.05828 59.5651 1.15235L57.9476 6.28852C57.9277 6.38259 57.8678 6.38259 57.8079 6.30734L55.7112 2.26236C55.6713 2.18711 55.5515 2.13067 55.4516 2.16829L53.0355 2.88322C52.9356 2.92085 52.8957 2.9961 52.9356 3.09017L56.7495 10.4464V14.8676C56.7495 14.9617 56.8294 15.0181 56.9293 14.9805L59.3454 14.2656C59.4453 14.228 59.5251 14.1339 59.5251 14.0398V9.93841C59.5251 9.91959 59.5451 9.82552 59.585 9.73145L62.7799 0.117586C62.8199 0.0235173 62.76 -0.0141104 62.6601 0.00470346ZM49.9803 4.23781C49.9404 4.0873 49.8805 3.91798 49.6608 3.95561C49.6009 3.97442 47.2846 4.63291 47.2846 4.63291C47.1449 4.67053 46.9851 4.72697 46.9252 4.74579C46.8254 4.78342 46.7854 4.8963 46.7455 5.04681L43.8301 18.7057C43.7902 18.8562 43.89 18.9314 44.0498 18.8938L46.2663 18.2353C46.406 18.1977 46.5658 18.0472 46.5857 17.8967L46.9252 16.0905C46.9651 15.94 47.0051 15.8271 47.1249 15.7895L49.9204 14.8864C50.0602 14.8488 50.1201 14.9241 50.1401 15.037L50.5794 16.6361C50.6193 16.7866 50.7591 16.8619 50.9188 16.8055L52.9556 16.2034C53.0954 16.1658 53.1952 16.0153 53.1553 15.8648L49.9803 4.23781ZM49.1816 12.6476L47.7239 13.0803C47.5642 13.1368 47.5442 13.0615 47.5842 12.8922L48.3829 8.52737C48.4228 8.37686 48.5426 8.33923 48.5826 8.50855L49.4412 12.3278C49.4811 12.5159 49.3613 12.61 49.1816 12.6476ZM41.6736 11.594C41.6736 7.04107 37.7199 7.51142 37.3605 7.60549C36.9811 7.69956 33.4667 8.75313 33.4667 8.75313C33.4667 8.75313 33.3468 8.79076 33.3468 8.94127V21.7723C33.3468 21.904 33.4068 22.0169 33.5865 21.9604C33.6663 21.9416 37.6799 20.7375 37.6799 20.7375C37.9196 20.6623 41.8333 19.6652 41.6935 14.7736V11.594H41.6736ZM38.8181 15.4509C38.8181 17.4075 37.3205 17.859 37.3205 17.859L36.0825 18.2353V10.7662L37.3205 10.3899C37.3205 10.3899 38.8181 9.93841 38.8181 11.895V15.4509Z" fill="#35383D"/>
<path d="M46.6574 21.5559L44.4231 22.239C44.3785 22.2527 44.3493 22.2952 44.3525 22.3417L44.7408 27.8864C44.7453 27.9506 44.8083 27.9939 44.8698 27.9751L45.6756 27.7287C45.7202 27.7151 45.7494 27.6725 45.7462 27.626L45.5985 25.5413C45.5952 25.4948 45.6245 25.4522 45.669 25.4386L47.1918 24.973C48.4694 24.5824 48.8839 23.3933 48.6079 22.4905C48.381 21.7484 47.6979 21.2378 46.6574 21.5559ZM45.6533 24.4646C45.5919 24.4834 45.529 24.4402 45.5243 24.3762L45.4244 23.0014C45.421 22.9548 45.4503 22.9121 45.4949 22.8985L46.7269 22.5218C47.1935 22.3792 47.5043 22.602 47.6095 22.9463C47.7358 23.3594 47.5378 23.8884 46.9488 24.0685L45.6533 24.4646Z" fill="#35383D"/>
<path d="M52.3192 19.8249L50.192 20.4753C50.1474 20.4889 50.1182 20.5315 50.1215 20.5779L50.5097 26.1227C50.5142 26.1868 50.5772 26.2301 50.6387 26.2113L51.4446 25.965C51.4891 25.9513 51.5184 25.9087 51.5151 25.8623L51.3674 23.7775C51.3641 23.731 51.3934 23.6885 51.4379 23.6748L52.3356 23.4004C52.3756 23.3881 52.4191 23.4022 52.4444 23.4355L53.7736 25.1845C53.799 25.2178 53.8424 25.2319 53.8825 25.2196L54.7552 24.9528C54.8224 24.9323 54.848 24.8508 54.8047 24.7955L53.4003 23.002C53.3631 22.9545 53.3764 22.8851 53.4268 22.8518C54.2259 22.3238 54.4384 21.4482 54.2291 20.7636C54.0092 20.0444 53.3138 19.5209 52.3192 19.8249ZM51.4152 22.703C51.3536 22.7218 51.2905 22.6784 51.2862 22.6141L51.1929 21.2373C51.1898 21.1909 51.219 21.1485 51.2634 21.1349L52.3351 20.8072C52.8094 20.6622 53.1295 20.9157 53.2324 21.2523C53.3517 21.6425 53.1767 22.1645 52.5876 22.3446L51.4152 22.703Z" fill="#35383D"/>
<path d="M57.9379 17.9816C56.1783 18.5196 55.4567 20.4552 55.9572 22.0924C56.418 23.5995 57.7168 24.1812 59.048 23.7742C60.8382 23.2269 61.5076 21.2571 61.0187 19.6582C60.5603 18.1587 59.2615 17.577 57.9379 17.9816ZM56.9667 21.7001C56.6369 20.6214 57.0215 19.3075 58.1691 18.9567C59.0336 18.6924 59.7356 19.1553 60.014 20.0657C60.3414 21.1368 59.9568 22.4507 58.8092 22.8015C57.96 23.0611 57.2497 22.6258 56.9667 21.7001Z" fill="#35383D"/>
</svg>
