<svg width="24" height="24" viewBox="0 0 24 24" fill="none" xmlns="http://www.w3.org/2000/svg">
<path d="M0 4C0 1.79086 1.79086 0 4 0H20C22.2091 0 24 1.79086 24 4V20C24 22.2091 22.2091 24 20 24H4C1.79086 24 0 22.2091 0 20V4Z" fill="white"/>
<path d="M13.875 11.625C13.875 10.7966 13.2034 10.125 12.375 10.125C11.5466 10.125 10.875 10.7966 10.875 11.625C10.875 12.4534 11.5466 13.125 12.375 13.125C13.2034 13.125 13.875 12.4534 13.875 11.625Z" fill="#35383D"/>
<path d="M13.875 5.625C13.875 4.79657 13.2034 4.125 12.375 4.125C11.5466 4.125 10.875 4.79657 10.875 5.625C10.875 6.45343 11.5466 7.125 12.375 7.125C13.2034 7.125 13.875 6.45343 13.875 5.625Z" fill="#35383D"/>
<path d="M13.875 17.625C13.875 16.7966 13.2034 16.125 12.375 16.125C11.5466 16.125 10.875 16.7966 10.875 17.625C10.875 18.4534 11.5466 19.125 12.375 19.125C13.2034 19.125 13.875 18.4534 13.875 17.625Z" fill="#35383D"/>
</svg>
