<svg width="185" height="204" viewBox="0 0 185 204" fill="none" xmlns="http://www.w3.org/2000/svg">
<path d="M89.2426 163.755C120.347 157.922 143.081 176.604 163.183 136.121C194.115 73.8285 193.627 43.7999 152.23 23.1074C133.509 13.7499 65.589 -11.7581 39.1306 6.31903C12.8264 29.0095 45.0659 34.1464 17.423 64.7244C-10.2198 95.3026 -1.6021 112.648 19.8843 135.008C41.3706 157.368 68.5607 167.634 89.2426 163.755Z" fill="#F5C47A"/>
<path d="M57.3246 173.312C62.0093 182.735 62.8865 191.92 86.2383 188.613C122.17 183.523 127.176 175.657 133.008 157.876C137.328 144.708 137.805 129.055 116.74 125.168C95.6756 121.281 71.2063 138.244 58.914 149.873C46.6218 161.502 55.9089 170.464 57.3246 173.312Z" fill="#DFB3B3"/>
</svg>
