<svg width="24" height="25" viewBox="0 0 24 25" fill="none" xmlns="http://www.w3.org/2000/svg">
<path d="M8.25 22.7461H15.75" stroke="black" stroke-width="1.5" stroke-linecap="round" stroke-linejoin="round"/>
<path d="M7.3782 16.6525C6.48532 15.9582 5.76216 15.0699 5.26351 14.0547C4.76485 13.0395 4.50378 11.9242 4.50008 10.7931C4.48133 6.72437 7.7532 3.34 11.822 3.24625C13.3966 3.20892 14.9431 3.66831 16.242 4.55928C17.541 5.45024 18.5264 6.72755 19.0586 8.21004C19.5908 9.69254 19.6428 11.305 19.2071 12.8186C18.7714 14.3323 17.8702 15.6704 16.6313 16.6431C16.3577 16.8547 16.136 17.126 15.9832 17.4363C15.8305 17.7467 15.7507 18.0878 15.7501 18.4337V18.9962C15.7501 19.1952 15.6711 19.3859 15.5304 19.5266C15.3898 19.6672 15.199 19.7462 15.0001 19.7462H9.00008C8.80117 19.7462 8.6104 19.6672 8.46975 19.5266C8.3291 19.3859 8.25008 19.1952 8.25008 18.9962V18.4337C8.24773 18.0904 8.16814 17.7521 8.01721 17.4437C7.86628 17.1354 7.64788 16.8649 7.3782 16.6525V16.6525Z" stroke="black" stroke-width="1.5" stroke-linecap="round" stroke-linejoin="round"/>
<path d="M12.7578 6.32129C13.6745 6.47668 14.5203 6.91276 15.1786 7.56935C15.8368 8.22593 16.2751 9.07065 16.4328 9.98691" stroke="black" stroke-width="1.5" stroke-linecap="round" stroke-linejoin="round"/>
</svg>
