<svg width="17" height="17" viewBox="0 0 17 17" fill="none" xmlns="http://www.w3.org/2000/svg">
<path d="M8.92578 8.8418C10.0304 8.8418 10.9258 7.94637 10.9258 6.8418C10.9258 5.73723 10.0304 4.8418 8.92578 4.8418C7.82121 4.8418 6.92578 5.73723 6.92578 6.8418C6.92578 7.94637 7.82121 8.8418 8.92578 8.8418Z" stroke="#35383D" stroke-width="1.5" stroke-linecap="round" stroke-linejoin="round"/>
<path d="M13.9258 6.8418C13.9258 11.3418 8.92578 14.8418 8.92578 14.8418C8.92578 14.8418 3.92578 11.3418 3.92578 6.8418C3.92578 5.51571 4.45257 4.24394 5.39025 3.30626C6.32793 2.36858 7.5997 1.8418 8.92578 1.8418C10.2519 1.8418 11.5236 2.36858 12.4613 3.30626C13.399 4.24394 13.9258 5.51571 13.9258 6.8418V6.8418Z" stroke="#35383D" stroke-width="1.5" stroke-linecap="round" stroke-linejoin="round"/>
</svg>
