<svg width="24" height="24" viewBox="0 0 24 24" fill="none" xmlns="http://www.w3.org/2000/svg">
<path d="M12.3219 3.19103C11.9478 3.36882 11.5004 3.20967 11.3226 2.83556C11.1448 2.46144 11.304 2.01403 11.6781 1.83624L12.3219 3.19103ZM17.937 9.76636C18.0109 9.35879 18.4012 9.08825 18.8087 9.16211C19.2163 9.23597 19.4868 9.62624 19.413 10.0338L17.937 9.76636ZM20.8 6.00008L21.5354 5.853L20.8 6.00008ZM22.125 15.3751L21.525 15.8251L22.125 15.3751ZM18.0536 15.7786C17.6099 14.6693 17.6077 13.1164 17.6828 11.9488C17.7217 11.3438 17.7848 10.8013 17.8381 10.4102C17.8648 10.2143 17.8892 10.0554 17.907 9.94457C17.9159 9.88914 17.9232 9.84567 17.9284 9.81552C17.931 9.80045 17.933 9.7887 17.9345 9.78045C17.9352 9.77633 17.9358 9.77308 17.9362 9.77072C17.9364 9.76955 17.9366 9.76859 17.9367 9.76786C17.9368 9.7675 17.9369 9.76719 17.9369 9.76694C17.9369 9.76682 17.937 9.76667 17.937 9.76661C17.937 9.76648 17.937 9.76636 18.675 9.90009C19.413 10.0338 19.413 10.0337 19.413 10.0337C19.413 10.0337 19.413 10.0336 19.413 10.0336C19.413 10.0336 19.413 10.0336 19.413 10.0337C19.413 10.0339 19.4129 10.0343 19.4128 10.0349C19.4126 10.0361 19.4122 10.0382 19.4117 10.0412C19.4106 10.0472 19.409 10.0566 19.4068 10.0692C19.4024 10.0946 19.396 10.133 19.3879 10.1831C19.3718 10.2833 19.3493 10.4301 19.3244 10.6127C19.2745 10.9786 19.2158 11.4845 19.1797 12.0451C19.1048 13.2087 19.1401 14.4559 19.4464 15.2215L18.0536 15.7786ZM11.6781 1.83624C14.0706 0.699235 16.3142 0.583282 18.1049 1.36068C19.904 2.14173 21.119 3.77096 21.5354 5.853L20.0646 6.14717C19.731 4.47922 18.796 3.29593 17.5076 2.73661C16.2108 2.17363 14.4294 2.18945 12.3219 3.19103L11.6781 1.83624ZM22.725 14.9251C23.0979 15.4223 23.3779 15.8778 23.5617 16.2909C23.7419 16.6959 23.8529 17.112 23.822 17.5112C23.7884 17.9442 23.5869 18.3274 23.2211 18.5779C22.887 18.8067 22.4887 18.8751 22.125 18.8751L22.125 17.3751C22.3238 17.3751 22.3826 17.3341 22.3736 17.3402C22.333 17.3681 22.3249 17.4154 22.3265 17.3952C22.3306 17.3413 22.3187 17.1871 22.1912 16.9007C22.0674 16.6224 21.8552 16.2654 21.525 15.8251L22.725 14.9251ZM22.125 18.8751C20.6809 18.8751 18.9128 17.9266 18.0536 15.7786L19.4464 15.2215C20.0872 16.8236 21.3191 17.3751 22.125 17.3751L22.125 18.8751ZM21.5354 5.853C21.7103 6.72736 21.731 7.58703 21.7086 8.40481C21.6974 8.81313 21.675 9.21994 21.6544 9.61199C21.6335 10.0079 21.6142 10.3903 21.6071 10.7688C21.5789 12.2714 21.7465 13.6205 22.725 14.9251L21.525 15.8251C20.2535 14.1297 20.0765 12.3808 20.1073 10.7407C20.115 10.3335 20.1356 9.92752 20.1564 9.53294C20.1775 9.13454 20.1986 8.74893 20.2091 8.3637C20.2302 7.59437 20.2076 6.86238 20.0646 6.14717L21.5354 5.853Z" fill="#35383D"/>
<path d="M12 16.0137C15.7279 16.0137 18.75 12.9916 18.75 9.26367C18.75 5.53575 15.7279 2.51367 12 2.51367C8.27208 2.51367 5.25 5.53575 5.25 9.26367C5.25 12.9916 8.27208 16.0137 12 16.0137Z" stroke="#35383D" stroke-width="1.5" stroke-miterlimit="10"/>
<path d="M11.2113 6.98693C11.3422 6.59395 11.1297 6.16925 10.7368 6.03835C10.3438 5.90744 9.91908 6.1199 9.78817 6.51288L11.2113 6.98693ZM5.36147 8.66978C4.95187 8.60816 4.56987 8.89026 4.50825 9.29987C4.44663 9.70947 4.72873 10.0915 5.13834 10.1531L5.36147 8.66978ZM9.78817 6.51288C9.20089 8.27593 7.42126 8.97964 5.36147 8.66978L5.13834 10.1531C7.57875 10.5202 10.2996 9.72393 11.2113 6.98693L9.78817 6.51288Z" fill="#35383D"/>
<path d="M8.99993 3.3749C8.99998 2.96069 9.33581 2.62494 9.75002 2.62499C10.1642 2.62504 10.5 2.96087 10.4999 3.37509L8.99993 3.3749ZM18.5248 9.375C18.939 9.375 19.2748 9.71079 19.2748 10.125C19.2748 10.5392 18.939 10.875 18.5248 10.875L18.5248 9.375ZM10.4999 3.37509C10.4997 5.55376 11.4323 7.00947 12.8577 7.95267C14.322 8.92158 16.3537 9.37501 18.5248 9.375L18.5248 10.875C16.1805 10.875 13.8244 10.391 12.03 9.20362C10.1967 7.99056 8.99959 6.07126 8.99993 3.3749L10.4999 3.37509Z" fill="#35383D"/>
<path d="M3.06885 21.9606C3.99035 20.3641 5.31588 19.0384 6.91218 18.1167C8.50848 17.195 10.3193 16.7097 12.1626 16.7097C14.0059 16.7097 15.8167 17.195 17.413 18.1167C19.0093 19.0384 20.3348 20.3641 21.2563 21.9606" stroke="#35383D" stroke-width="1.5" stroke-linecap="round" stroke-linejoin="round"/>
</svg>
