<svg width="24" height="24" viewBox="0 0 24 24" fill="none" xmlns="http://www.w3.org/2000/svg">
<mask id="path-1-inside-1_777_5109" fill="white">
<path d="M9.14045 4.01169C9.99031 1.02721 14.2579 1.13912 14.9501 4.16405L17.439 14.0708C17.4879 14.2655 17.6495 14.4091 17.8444 14.4574C19.484 14.8637 20.6994 16.3451 20.6994 18.1103C20.6994 20.1886 19.0145 21.8735 16.9362 21.8735C16.1541 21.8735 15.4277 21.6349 14.8258 21.2265C14.5468 21.0372 14.1414 21.1041 13.9133 21.3524C13.4533 21.853 12.7931 22.1667 12.0596 22.1667C11.3252 22.1667 10.6643 21.8522 10.2042 21.3505C9.95996 21.0842 9.50603 21.0203 9.21202 21.2304C8.65307 21.6299 7.93705 21.8735 7.06398 21.8735C4.98562 21.8735 3.30078 20.1886 3.30078 18.1103C3.30078 16.5443 4.25729 15.2017 5.61794 14.6349C5.76561 14.5734 5.88437 14.4547 5.93198 14.302L9.14045 4.01169Z"/>
</mask>
<path d="M14.9501 4.16405L13.4879 4.49868L13.4915 4.51415L13.4953 4.52954L14.9501 4.16405ZM9.14045 4.01169L10.5725 4.45818L10.578 4.44041L10.5831 4.4225L9.14045 4.01169ZM5.93198 14.302L4.49998 13.8555L5.93198 14.302ZM14.8258 21.2265L15.668 19.9853L14.8258 21.2265ZM13.9133 21.3524L12.8088 20.3375L13.9133 21.3524ZM10.2042 21.3505L9.09871 22.3644L10.2042 21.3505ZM17.439 14.0708L18.8938 13.7053L17.439 14.0708ZM17.8444 14.4574L17.4836 15.9134L17.8444 14.4574ZM16.4123 3.82942C15.3739 -0.707965 8.97259 -0.875849 7.6978 3.60088L10.5831 4.4225C11.008 2.93026 13.1418 2.98621 13.4879 4.49868L16.4123 3.82942ZM18.8938 13.7053L16.4049 3.79856L13.4953 4.52954L15.9842 14.4363L18.8938 13.7053ZM22.1994 18.1103C22.1994 15.6395 20.4982 13.5697 18.2052 13.0015L17.4836 15.9134C18.4698 16.1578 19.1994 17.0507 19.1994 18.1103H22.1994ZM16.9362 23.3735C19.843 23.3735 22.1994 21.0171 22.1994 18.1103H19.1994C19.1994 19.3602 18.1861 20.3735 16.9362 20.3735V23.3735ZM13.9836 22.4677C14.8261 23.0394 15.8444 23.3735 16.9362 23.3735V20.3735C16.4637 20.3735 16.0292 20.2303 15.668 19.9853L13.9836 22.4677ZM12.0596 23.6667C13.2302 23.6667 14.2856 23.1641 15.0178 22.3674L12.8088 20.3375C12.6209 20.5419 12.3559 20.6667 12.0596 20.6667V23.6667ZM9.09871 22.3644C9.83097 23.1628 10.8875 23.6667 12.0596 23.6667V20.6667C11.7629 20.6667 11.4976 20.5416 11.3097 20.3367L9.09871 22.3644ZM7.06398 23.3735C8.22837 23.3735 9.25388 23.0442 10.0842 22.4508L8.33983 20.0101C8.05225 20.2156 7.64573 20.3735 7.06398 20.3735V23.3735ZM1.80078 18.1103C1.80078 21.0171 4.15719 23.3735 7.06398 23.3735V20.3735C5.81405 20.3735 4.80078 19.3602 4.80078 18.1103H1.80078ZM5.04114 13.2503C3.14105 14.0418 1.80078 15.9177 1.80078 18.1103H4.80078C4.80078 17.1708 5.37353 16.3617 6.19474 16.0196L5.04114 13.2503ZM7.70844 3.5652L4.49998 13.8555L7.36399 14.7485L10.5725 4.45818L7.70844 3.5652ZM6.19474 16.0196C6.70008 15.8091 7.16825 15.3763 7.36399 14.7485L4.49998 13.8555C4.60048 13.5332 4.83114 13.3377 5.04114 13.2503L6.19474 16.0196ZM15.668 19.9853C14.7102 19.3353 13.4863 19.6002 12.8088 20.3375L15.0178 22.3674C14.8817 22.5154 14.7181 22.5875 14.5677 22.6096C14.4148 22.6319 14.1964 22.6121 13.9836 22.4677L15.668 19.9853ZM11.3097 20.3367C10.5942 19.5565 9.29883 19.3247 8.33983 20.0101L10.0842 22.4508C9.87437 22.6008 9.66673 22.6163 9.53745 22.5998C9.40919 22.5835 9.24396 22.5227 9.09871 22.3644L11.3097 20.3367ZM15.9842 14.4363C16.1859 15.239 16.8246 15.7501 17.4836 15.9134L18.2052 13.0015C18.4744 13.0682 18.79 13.2921 18.8938 13.7053L15.9842 14.4363Z" fill="#35383D" mask="url(#path-1-inside-1_777_5109)"/>
<path d="M13.3764 20.0415L14.1264 20.0492L14.1264 20.0482L13.3764 20.0415ZM7.98998 18.2649C7.57577 18.2649 7.23999 18.6007 7.23999 19.0149C7.23999 19.4291 7.57578 19.7649 7.99 19.7649L7.98998 18.2649ZM16.0084 19.7649C16.4227 19.7649 16.7584 19.4291 16.7584 19.0149C16.7584 18.6007 16.4227 18.2649 16.0084 18.2649V19.7649ZM12.6265 20.0339C12.6228 20.3897 12.3451 20.6576 12.0103 20.6576V22.1576C13.1845 22.1576 14.1145 21.2104 14.1264 20.0492L12.6265 20.0339ZM12.0103 20.6576C11.6701 20.6576 11.3943 20.3818 11.3943 20.0415H9.89427C9.89427 21.2102 10.8417 22.1576 12.0103 22.1576V20.6576ZM11.3943 20.0415C11.3943 19.5721 11.1419 19.0766 10.5507 18.7423C10.0096 18.4363 9.19299 18.2649 7.98998 18.2649L7.99 19.7649C9.09193 19.7649 9.60248 19.9293 9.81232 20.048C9.97196 20.1383 9.89427 20.1562 9.89427 20.0415H11.3943ZM14.1264 20.0482C14.1265 20.0346 14.128 20.0517 14.116 20.0751C14.1021 20.1022 14.0987 20.0833 14.1714 20.0398C14.3485 19.9337 14.8377 19.7649 16.0084 19.7649V18.2649C14.7588 18.2649 13.9336 18.4337 13.4005 18.753C13.1181 18.9222 12.9108 19.138 12.7813 19.3906C12.6537 19.6394 12.6279 19.8728 12.6264 20.0349L14.1264 20.0482Z" fill="#35383D"/>
</svg>
