<svg width="24" height="24" viewBox="0 0 24 24" fill="none" xmlns="http://www.w3.org/2000/svg">
<path d="M8.99048 5.625C10.026 5.625 10.8655 4.78553 10.8655 3.75C10.8655 2.71447 10.026 1.875 8.99048 1.875C7.95494 1.875 7.11548 2.71447 7.11548 3.75C7.11548 4.78553 7.95494 5.625 8.99048 5.625Z" stroke="#35383D" stroke-width="1.5" stroke-linecap="round" stroke-linejoin="round"/>
<path d="M8.99048 5.625V12.375H17.2405L20.2405 18.375L22.4905 17.625" stroke="#35383D" stroke-width="1.5" stroke-linecap="round" stroke-linejoin="round"/>
<path d="M15.7309 15.375C15.6578 16.5433 15.2445 17.6647 14.5419 18.6011C13.8393 19.5374 12.8782 20.2478 11.7769 20.6446C10.6756 21.0415 9.48229 21.1076 8.34393 20.8347C7.20557 20.5618 6.1719 19.9618 5.37027 19.1088C4.56864 18.2557 4.03406 17.1868 3.83239 16.0337C3.63072 14.8806 3.77076 13.6936 4.23528 12.6191C4.69979 11.5446 5.46847 10.6295 6.44664 9.98641C7.4248 9.34334 8.56971 9.00046 9.74032 9H14.9903" stroke="#35383D" stroke-width="1.5" stroke-linecap="round" stroke-linejoin="round"/>
</svg>
