<svg width="24" height="24" viewBox="0 0 24 24" fill="none" xmlns="http://www.w3.org/2000/svg">
<path d="M20.5217 7.22803C21.1493 7.85416 21.6472 8.59793 21.987 9.41676C22.3267 10.2356 22.5016 11.1134 22.5016 11.9999C22.5016 12.8864 22.3267 13.7642 21.987 14.583C21.6472 15.4019 21.1493 16.1457 20.5217 16.7718" stroke="#35383D" stroke-width="1.5" stroke-linecap="round" stroke-linejoin="round"/>
<path d="M7.5 8.25V15.75" stroke="#35383D" stroke-width="1.5" stroke-linecap="round" stroke-linejoin="round"/>
<path d="M17.8689 9.88135C18.1478 10.1592 18.3691 10.4894 18.5201 10.853C18.6712 11.2166 18.7489 11.6064 18.7489 12.0001C18.7489 12.3938 18.6712 12.7836 18.5201 13.1472C18.3691 13.5108 18.1478 13.841 17.8689 14.1188" stroke="#35383D" stroke-width="1.5" stroke-linecap="round" stroke-linejoin="round"/>
<path d="M4.5 3.75L19.5 20.25" stroke="#35383D" stroke-width="1.5" stroke-linecap="round" stroke-linejoin="round"/>
<path d="M14.25 14.475V21L7.5 15.75H3C2.80109 15.75 2.61032 15.671 2.46967 15.5304C2.32902 15.3897 2.25 15.199 2.25 15V9.00005C2.25 8.80114 2.32902 8.61037 2.46967 8.46972C2.61032 8.32907 2.80109 8.25005 3 8.25005H7.5L8.1375 7.75317" stroke="#35383D" stroke-width="1.5" stroke-linecap="round" stroke-linejoin="round"/>
<path d="M10.519 5.90625L14.2503 3V10.0125" stroke="#35383D" stroke-width="1.5" stroke-linecap="round" stroke-linejoin="round"/>
</svg>
