<svg width="24" height="24" viewBox="0 0 24 24" fill="none" xmlns="http://www.w3.org/2000/svg">
<path d="M9 16.5H2.8125C2.66332 16.5 2.52024 16.4407 2.41475 16.3352C2.30926 16.2298 2.25 16.0867 2.25 15.9375V9.75C2.25 7.95979 2.96116 6.2429 4.22703 4.97703C5.4929 3.71116 7.20979 3 9 3V3C10.7902 3 12.5071 3.71116 13.773 4.97703C15.0388 6.2429 15.75 7.95979 15.75 9.75V9.75C15.75 11.5402 15.0388 13.2571 13.773 14.523C12.5071 15.7888 10.7902 16.5 9 16.5V16.5Z" stroke="#35383D" stroke-width="1.5" stroke-linecap="round" stroke-linejoin="round"/>
<path d="M8.63379 16.5001C9.09917 17.8164 9.96127 18.9561 11.1013 19.762C12.2414 20.5679 13.6033 21.0005 14.9994 21.0001H21.1869C21.3361 21.0001 21.4792 20.9409 21.5847 20.8354C21.6902 20.7299 21.7494 20.5868 21.7494 20.4376V14.2501C21.7518 12.5225 21.0908 10.8598 19.9027 9.60546C18.7146 8.35111 17.0903 7.60083 15.365 7.50952" stroke="#35383D" stroke-width="1.5" stroke-linecap="round" stroke-linejoin="round"/>
</svg>
