<svg width="24" height="24" viewBox="0 0 24 24" fill="none" xmlns="http://www.w3.org/2000/svg">
<path d="M15.5248 12.2639V8.35189C15.5248 7.95284 15.6833 7.57013 15.9655 7.28795C16.2477 7.00578 16.6304 6.84726 17.0294 6.84726C17.4285 6.84726 17.8112 7.00578 18.0933 7.28795C18.3755 7.57013 18.534 7.95284 18.534 8.35189V14.6713C18.534 15.4617 18.3784 16.2443 18.0759 16.9745C17.7735 17.7047 17.3301 18.3682 16.7713 18.9271C16.2124 19.4859 15.5489 19.9293 14.8187 20.2317C14.0885 20.5342 13.3059 20.6899 12.5155 20.6899C9.19029 20.6899 7.70071 18.8843 5.24816 13.7159C5.04864 13.3697 4.9948 12.9585 5.0985 12.5726C5.2022 12.1867 5.45494 11.8578 5.80112 11.6583C6.14729 11.4588 6.55855 11.4049 6.94443 11.5086C7.3303 11.6123 7.65917 11.8651 7.8587 12.2113L9.50627 15.0701V7.14818C9.50627 6.74913 9.66479 6.36642 9.94696 6.08425C10.2291 5.80208 10.6118 5.64355 11.0109 5.64355C11.4099 5.64355 11.7927 5.80208 12.0748 6.08425C12.357 6.36642 12.5155 6.74913 12.5155 7.14818V12.2639" stroke="#35383D" stroke-width="1.5" stroke-linecap="round" stroke-linejoin="round"/>
<path d="M15.5234 8.35198V5.94457C15.5234 5.54552 15.3649 5.16281 15.0827 4.88064C14.8006 4.59846 14.4178 4.43994 14.0188 4.43994C13.6197 4.43994 13.237 4.59846 12.9549 4.88064C12.6727 5.16281 12.5142 5.54552 12.5142 5.94457V7.14827" stroke="#35383D" stroke-width="1.5" stroke-linecap="round" stroke-linejoin="round"/>
<path d="M7.04688 5.43987C7.93606 3.66148 8.82525 3.46443 10.0659 3.44259C10.3697 3.43724 10.6562 3.30146 10.8734 3.08915C11.5384 2.43932 13.1485 1.18052 15.0469 1.93984" stroke="#35383D" stroke-width="1.5" stroke-linecap="round"/>
</svg>
