<svg width="24" height="24" viewBox="0 0 24 24" fill="none" xmlns="http://www.w3.org/2000/svg">
<path d="M12 14.0715C13.6569 14.0715 15 12.7284 15 11.0715C15 9.41468 13.6569 8.07153 12 8.07153C10.3431 8.07153 9 9.41468 9 11.0715C9 12.7284 10.3431 14.0715 12 14.0715Z" stroke="#35383D" stroke-width="1.5" stroke-linecap="round" stroke-linejoin="round"/>
<path d="M7.5 16.3215C8.02395 15.6229 8.70336 15.0559 9.48442 14.6654C10.2655 14.2748 11.1267 14.0715 12 14.0715C12.8733 14.0715 13.7345 14.2748 14.5156 14.6654C15.2966 15.0559 15.976 15.6229 16.5 16.3215" stroke="#35383D" stroke-width="1.5" stroke-linecap="round" stroke-linejoin="round"/>
<path d="M19.5 20.25V3.75C19.5 3.33579 19.1642 3 18.75 3L5.25 3C4.83579 3 4.5 3.33579 4.5 3.75L4.5 20.25C4.5 20.6642 4.83579 21 5.25 21H18.75C19.1642 21 19.5 20.6642 19.5 20.25Z" stroke="#35383D" stroke-width="1.5" stroke-linecap="round" stroke-linejoin="round"/>
</svg>
