<svg width="48" height="48" viewBox="0 0 48 48" fill="none" xmlns="http://www.w3.org/2000/svg">
<path d="M21.8614 33.8125H21.8615C21.889 33.8125 21.9179 33.8233 21.9414 33.8466C21.9643 33.8694 21.9799 33.9026 21.9816 33.9401V38.6293C21.9764 40.3722 21.29 42.0403 20.0752 43.2722C18.8616 44.5029 17.219 45.1992 15.5039 45.2147H8.05761C6.33406 45.2147 4.67848 44.5242 3.45578 43.291C2.23265 42.0573 1.54321 40.3814 1.54321 38.6312V38.616L1.5429 38.6008L1.5 36.4807V33.9248C1.5 33.9083 1.50325 33.8922 1.50923 33.8777C1.51521 33.8631 1.52364 33.8507 1.53341 33.8408C1.54315 33.831 1.55402 33.8239 1.56506 33.8193C1.57605 33.8147 1.5874 33.8125 1.59856 33.8125H21.8614Z" fill="white" stroke="#B0654D" stroke-width="3"/>
<path d="M20.9997 32.5716C20.7217 30.6257 18.7129 25.732 12.9208 24.5211C12.6505 24.4646 12.3931 24.6498 12.3222 24.9167C11.8554 26.6738 10.2929 29.223 6.85686 28.2859C4.28544 27.5846 2.14258 31.0001 2.14258 32.5716" stroke="#B0654D" stroke-width="3"/>
<path opacity="0.2" d="M12.9208 24.5211C18.7129 25.732 20.7217 30.6257 20.9997 32.5716H2.14258C2.14258 31.0001 4.28544 27.5846 6.85686 28.2859C10.2929 29.223 11.8554 26.6738 12.3222 24.9167C12.3931 24.6498 12.6505 24.4646 12.9208 24.5211Z" fill="#B0654D"/>
<path opacity="0.2" d="M21.7373 3.55587C21.5736 2.35501 22.507 1.28564 23.719 1.28564H45.6558C46.8857 1.28564 47.8242 2.38524 47.631 3.59987L42.4014 36.4713C42.1697 37.9279 40.9136 38.9999 39.4387 38.9999H29.1893C27.6891 38.9999 26.4195 37.8917 26.2168 36.4053L21.7373 3.55587Z" fill="#B0654D"/>
<path d="M31.3083 18.8921C31.3532 21.4595 32.4059 23.9043 34.2355 25.6903C36.0652 27.4763 38.5223 28.4575 41.0677 28.4188L44.0658 9.60357C43.004 9.21173 41.8806 9.01727 40.7502 9.02961C38.2029 9.07993 35.7794 10.1459 34.0099 11.9942C32.2404 13.8425 31.269 16.3227 31.3083 18.8921Z" fill="white"/>
<mask id="path-6-inside-1_4968_29532" fill="white">
<path fill-rule="evenodd" clip-rule="evenodd" d="M29.1894 35.9999L24.8647 4.28564H44.4843L39.4388 35.9999H29.1894ZM21.7374 3.55587C21.5737 2.35501 22.5071 1.28564 23.7191 1.28564H45.656C46.8859 1.28564 47.8244 2.38524 47.6311 3.59987L42.4016 36.4713C42.1921 37.7882 41.1452 38.7908 39.8563 38.971V39.4285V43.7142C39.8563 45.3711 38.5132 46.7142 36.8563 46.7142H32.142C30.4852 46.7142 29.142 45.3711 29.142 43.7142V39.4285V38.9996C27.6625 38.9765 26.4175 37.8761 26.2169 36.4053L21.7374 3.55587ZM32.142 39.4285H36.8563V43.7142H32.142L32.142 39.4285Z"/>
</mask>
<path fill-rule="evenodd" clip-rule="evenodd" d="M29.1894 35.9999L24.8647 4.28564H44.4843L39.4388 35.9999H29.1894ZM21.7374 3.55587C21.5737 2.35501 22.5071 1.28564 23.7191 1.28564H45.656C46.8859 1.28564 47.8244 2.38524 47.6311 3.59987L42.4016 36.4713C42.1921 37.7882 41.1452 38.7908 39.8563 38.971V39.4285V43.7142C39.8563 45.3711 38.5132 46.7142 36.8563 46.7142H32.142C30.4852 46.7142 29.142 45.3711 29.142 43.7142V39.4285V38.9996C27.6625 38.9765 26.4175 37.8761 26.2169 36.4053L21.7374 3.55587ZM32.142 39.4285H36.8563V43.7142H32.142L32.142 39.4285Z" fill="white"/>
<path d="M24.8647 4.28564V1.28564H21.4279L21.8922 4.69098L24.8647 4.28564ZM29.1894 35.9999L26.2169 36.4053L26.5707 38.9999H29.1894V35.9999ZM44.4843 4.28564L47.447 4.75699L47.9993 1.28564L44.4843 1.28564V4.28564ZM39.4388 35.9999V38.9999H41.9993L42.4016 36.4713L39.4388 35.9999ZM21.7374 3.55587L24.7099 3.15053L21.7374 3.55587ZM47.6311 3.59987L50.5939 4.07122V4.07122L47.6311 3.59987ZM42.4016 36.4713L45.3643 36.9426L45.3643 36.9426L42.4016 36.4713ZM39.8563 38.971L39.441 35.9999L36.8563 36.3611V38.971H39.8563ZM29.142 38.9996H32.142V36.0459L29.1887 35.9999L29.142 38.9996ZM26.2169 36.4053L23.2444 36.8106L23.2444 36.8106L26.2169 36.4053ZM36.8563 39.4285H39.8563V36.4285H36.8563V39.4285ZM32.142 39.4285V36.4285H29.142L29.142 39.4285L32.142 39.4285ZM36.8563 43.7142V46.7142H39.8563V43.7142H36.8563ZM32.142 43.7142L29.142 43.7142L29.142 46.7142H32.142V43.7142ZM21.8922 4.69098L26.2169 36.4053L32.1619 35.5946L27.8372 3.88031L21.8922 4.69098ZM44.4843 1.28564H24.8647V7.28564H44.4843V1.28564ZM42.4016 36.4713L47.447 4.75699L41.5215 3.8143L36.4761 35.5286L42.4016 36.4713ZM29.1894 38.9999H39.4388V32.9999H29.1894V38.9999ZM23.7191 -1.71436C20.6892 -1.71436 18.3556 0.959057 18.7649 3.96121L24.7099 3.15053C24.7918 3.75096 24.3251 4.28564 23.7191 4.28564V-1.71436ZM45.656 -1.71436H23.7191V4.28564H45.656V-1.71436ZM50.5939 4.07122C51.0769 1.03464 48.7307 -1.71436 45.656 -1.71436V4.28564C45.041 4.28564 44.5718 3.73585 44.6684 3.12853L50.5939 4.07122ZM45.3643 36.9426L50.5939 4.07122L44.6684 3.12853L39.4388 35.9999L45.3643 36.9426ZM40.2716 41.9421C42.851 41.5816 44.945 39.578 45.3643 36.9426L39.4388 35.9999C39.4385 36.0021 39.4383 36.0026 39.4385 36.0019C39.4386 36.0014 39.439 36.0006 39.4394 35.9998C39.4401 35.9984 39.4404 35.9985 39.4394 35.9994C39.4383 36.0005 39.4374 36.0009 39.4375 36.0009C39.4381 36.0006 39.4397 36 39.441 35.9999L40.2716 41.9421ZM42.8563 39.4285V38.971H36.8563V39.4285H42.8563ZM42.8563 43.7142V39.4285H36.8563V43.7142H42.8563ZM36.8563 49.7142C40.17 49.7142 42.8563 47.0279 42.8563 43.7142H36.8563V43.7142V49.7142ZM32.142 49.7142H36.8563V43.7142H32.142V49.7142ZM26.142 43.7142C26.142 47.0279 28.8283 49.7142 32.142 49.7142V43.7142H32.142H26.142ZM26.142 39.4285V43.7142H32.142V39.4285H26.142ZM26.142 38.9996V39.4285H32.142V38.9996H26.142ZM23.2444 36.8106C23.6456 39.7524 26.1356 41.9531 29.0953 41.9992L29.1887 35.9999L29.1894 35.9999L23.2444 36.8106ZM18.7649 3.96121L23.2444 36.8106L29.1894 35.9999L24.7099 3.15053L18.7649 3.96121ZM36.8563 36.4285H32.142V42.4285H36.8563V36.4285ZM39.8563 43.7142V39.4285H33.8563V43.7142H39.8563ZM32.142 46.7142H36.8563V40.7142H32.142V46.7142ZM29.142 39.4285L29.142 43.7142L35.142 43.7142L35.142 39.4285L29.142 39.4285Z" fill="#B0654D" mask="url(#path-6-inside-1_4968_29532)"/>
</svg>
