<svg width="24" height="24" viewBox="0 0 24 24" fill="none" xmlns="http://www.w3.org/2000/svg">
<path d="M3.75 12.6001C3.75 11.9097 4.30964 11.3501 5 11.3501H20C20.6904 11.3501 21.25 11.9097 21.25 12.6001V17.0001C21.25 19.3473 19.3472 21.2501 17 21.2501H8C5.65279 21.2501 3.75 19.3473 3.75 17.0001V12.6001Z" stroke="#35383D" stroke-width="1.5"/>
<path d="M4.17694 8.49519C4.06383 8.89366 4.29516 9.30838 4.69362 9.42149C5.09209 9.53461 5.50682 9.30328 5.61993 8.90481L4.17694 8.49519ZM6.79844 6.8L6.83029 6.05068H6.83029L6.79844 6.8ZM13.4484 3V2.25V3ZM19.3869 8.93717C19.5179 9.33013 19.9427 9.5425 20.3356 9.41151C20.7286 9.28053 20.9409 8.85579 20.8099 8.46283L19.3869 8.93717ZM4.89844 8.7C5.61993 8.90481 5.61987 8.90503 5.61981 8.90524C5.61979 8.90531 5.61973 8.90551 5.6197 8.90563C5.61963 8.90588 5.61957 8.90609 5.61951 8.90628C5.6194 8.90666 5.61933 8.90692 5.61928 8.90707C5.6192 8.90737 5.61924 8.90723 5.61941 8.90666C5.61975 8.90551 5.6206 8.90265 5.62196 8.89819C5.62471 8.88926 5.6295 8.87402 5.63638 8.85338C5.6502 8.81196 5.67216 8.74969 5.70254 8.67382C5.76428 8.51959 5.85583 8.3216 5.97695 8.13135C6.24351 7.71265 6.51032 7.53843 6.76659 7.54932L6.83029 6.05068C5.74214 6.00443 5.05895 6.78021 4.71161 7.32579C4.52578 7.61768 4.39441 7.90541 4.30997 8.11636C4.26725 8.22307 4.2353 8.31326 4.21349 8.37865C4.20256 8.41142 4.1941 8.43816 4.18805 8.45788C4.18502 8.46774 4.18258 8.47586 4.18074 8.48212C4.17982 8.48525 4.17904 8.48791 4.17841 8.49009C4.17809 8.49118 4.17781 8.49216 4.17757 8.49301C4.17745 8.49343 4.17733 8.49382 4.17723 8.49419C4.17718 8.49437 4.17711 8.49462 4.17708 8.49471C4.17701 8.49495 4.17694 8.49519 4.89844 8.7ZM13.4484 3.75C15.4872 3.75 16.9542 4.96598 17.9547 6.3C18.4507 6.96134 18.8119 7.62715 19.0492 8.12963C19.1673 8.37987 19.2535 8.58701 19.3095 8.72932C19.3374 8.80041 19.3577 8.85512 19.3705 8.89072C19.377 8.90851 19.3815 8.92151 19.3842 8.92937C19.3856 8.9333 19.3865 8.93595 19.387 8.93726C19.3872 8.93792 19.3873 8.93824 19.3873 8.93823C19.3873 8.93822 19.3872 8.93813 19.3872 8.93796C19.3872 8.93787 19.3871 8.93767 19.3871 8.93763C19.387 8.93741 19.3869 8.93717 20.0984 8.7C20.8099 8.46283 20.8099 8.46255 20.8098 8.46224C20.8097 8.46211 20.8096 8.46179 20.8095 8.46152C20.8093 8.461 20.8091 8.46039 20.8089 8.45969C20.8084 8.4583 20.8078 8.45656 20.8071 8.45448C20.8057 8.45031 20.8038 8.44478 20.8014 8.43792C20.7967 8.42422 20.79 8.40521 20.7814 8.38125C20.7641 8.33336 20.7389 8.26561 20.7056 8.18084C20.639 8.01143 20.5397 7.77325 20.4055 7.48912C20.1381 6.92285 19.7274 6.16366 19.1547 5.4C18.0177 3.88402 16.1597 2.25 13.4484 2.25V3.75ZM6.76659 7.54932C7.05811 7.56171 7.4402 7.61375 7.9198 7.682C8.38412 7.74809 8.92083 7.82627 9.46947 7.87604C10.5358 7.97278 11.811 7.98226 12.8338 7.47082L12.163 6.12918C11.5449 6.43823 10.6423 6.47628 9.60499 6.38218C9.10181 6.33653 8.60523 6.26444 8.13116 6.19697C7.67236 6.13167 7.21098 6.06686 6.83029 6.05068L6.76659 7.54932ZM12.8338 7.47082C14.2133 6.78111 14.3364 5.39599 14.2812 4.49775C14.2532 4.04208 14.1716 3.5959 14.1372 3.35432C14.1158 3.20417 14.1171 3.16576 14.1163 3.17761C14.1156 3.18709 14.1133 3.21372 14.1041 3.25095C14.0952 3.28685 14.0754 3.3514 14.0303 3.4249C13.9127 3.61625 13.6946 3.75 13.4484 3.75V2.25C13.1512 2.25 12.8958 2.40601 12.7523 2.63957C12.6442 2.81539 12.6257 2.99179 12.6201 3.07102C12.6078 3.24245 12.6334 3.43412 12.6522 3.56601C12.6982 3.88849 12.7609 4.2142 12.784 4.58978C12.831 5.35405 12.6835 5.86894 12.163 6.12918L12.8338 7.47082Z" fill="#35383D"/>
</svg>
