<svg width="48" height="48" viewBox="0 0 48 48" fill="none" xmlns="http://www.w3.org/2000/svg">
<path opacity="0.2" d="M24 42C33.9411 42 42 33.9411 42 24C42 14.0589 33.9411 6 24 6C14.0589 6 6 14.0589 6 24C6 33.9411 14.0589 42 24 42Z" fill="#B0654D"/>
<path d="M24 42C33.9411 42 42 33.9411 42 24C42 14.0589 33.9411 6 24 6C14.0589 6 6 14.0589 6 24C6 33.9411 14.0589 42 24 42Z" stroke="#B0654D" stroke-width="3" stroke-linecap="round" stroke-linejoin="round"/>
<path d="M17.3571 22.7143C18.659 22.7143 19.7143 21.659 19.7143 20.3571C19.7143 19.0553 18.659 18 17.3571 18C16.0553 18 15 19.0553 15 20.3571C15 21.659 16.0553 22.7143 17.3571 22.7143Z" fill="#B0654D"/>
<path d="M28.5 20.25H33" stroke="#B0654D" stroke-width="3" stroke-linecap="round" stroke-linejoin="round"/>
<path d="M31.8012 28.5C31.0082 29.8661 29.8704 31 28.5015 31.7882C27.1326 32.5764 25.5808 32.9913 24.0012 32.9913C22.4216 32.9913 20.8697 32.5764 19.5008 31.7882C18.132 31 16.9941 29.8661 16.2012 28.5" stroke="#B0654D" stroke-width="3" stroke-linecap="round" stroke-linejoin="round"/>
</svg>
