<svg width="20" height="20" viewBox="0 0 20 20" fill="none" xmlns="http://www.w3.org/2000/svg">
<path d="M10.8352 13.7107L9.33524 17.781C9.29085 17.9007 9.21091 18.0038 9.10616 18.0767C9.00142 18.1495 8.87689 18.1886 8.74931 18.1886C8.62172 18.1886 8.49719 18.1495 8.39245 18.0767C8.28771 18.0038 8.20777 17.9007 8.16337 17.781L6.66337 13.7107C6.63171 13.6248 6.58179 13.5468 6.51705 13.4821C6.4523 13.4173 6.37428 13.3674 6.28837 13.3357L2.21806 11.8357C2.09845 11.7913 1.99529 11.7114 1.92244 11.6067C1.84959 11.5019 1.81055 11.3774 1.81055 11.2498C1.81055 11.1222 1.84959 10.9977 1.92244 10.8929C1.99529 10.7882 2.09845 10.7083 2.21806 10.6639L6.28837 9.16386C6.37428 9.1322 6.4523 9.08228 6.51705 9.01754C6.58179 8.95279 6.63171 8.87477 6.66337 8.78886L8.16337 4.71854C8.20777 4.59893 8.28771 4.49578 8.39245 4.42293C8.49719 4.35008 8.62172 4.31104 8.74931 4.31104C8.87689 4.31104 9.00142 4.35008 9.10616 4.42293C9.21091 4.49578 9.29085 4.59893 9.33524 4.71854L10.8352 8.78886C10.8669 8.87477 10.9168 8.95279 10.9816 9.01754C11.0463 9.08228 11.1243 9.1322 11.2102 9.16386L15.2806 10.6639C15.4002 10.7083 15.5033 10.7882 15.5762 10.8929C15.649 10.9977 15.6881 11.1222 15.6881 11.2498C15.6881 11.3774 15.649 11.5019 15.5762 11.6067C15.5033 11.7114 15.4002 11.7913 15.2806 11.8357L11.2102 13.3357C11.1243 13.3674 11.0463 13.4173 10.9816 13.4821C10.9168 13.5468 10.8669 13.6248 10.8352 13.7107V13.7107Z" stroke="#35383D" stroke-width="1.5" stroke-linecap="round" stroke-linejoin="round"/>
<path d="M13.75 1.25V5" stroke="#35383D" stroke-width="1.5" stroke-linecap="round" stroke-linejoin="round"/>
<path d="M15.625 3.125H11.875" stroke="#35383D" stroke-width="1.5" stroke-linecap="round" stroke-linejoin="round"/>
<path d="M17.5 5.625V8.125" stroke="#35383D" stroke-width="1.5" stroke-linecap="round" stroke-linejoin="round"/>
<path d="M18.75 6.875H16.25" stroke="#35383D" stroke-width="1.5" stroke-linecap="round" stroke-linejoin="round"/>
</svg>
