<svg width="24" height="24" viewBox="0 0 24 24" fill="none" xmlns="http://www.w3.org/2000/svg">
<rect width="24" height="24" rx="12" fill="white"/>
<path d="M15.7111 7.47952C15.4776 7.47986 15.2471 7.53172 15.0361 7.6314V7.25452C15.0342 6.88066 14.8993 6.51965 14.6557 6.23608C14.412 5.95251 14.0755 5.76486 13.7061 5.70668C13.3368 5.64851 12.9589 5.72362 12.6398 5.91857C12.3208 6.11351 12.0815 6.41559 11.9648 6.77077C11.7337 6.64457 11.4744 6.57879 11.2111 6.57952C10.7938 6.581 10.3941 6.74742 10.099 7.04247C9.80396 7.33751 9.63755 7.73726 9.63606 8.15452V12.3958L9.24231 11.7151C9.03569 11.3519 8.69323 11.0856 8.29026 10.9748C7.88729 10.864 7.45683 10.9179 7.09356 11.1245C6.7303 11.3311 6.46399 11.6736 6.35323 12.0766C6.24247 12.4795 6.29632 12.91 6.50294 13.2733C8.33106 17.1208 9.54606 18.7295 12.3361 18.7295C13.6484 18.728 14.9066 18.206 15.8346 17.2781C16.7626 16.3501 17.2846 15.0919 17.2861 13.7795V9.05452C17.2846 8.63726 17.1182 8.23751 16.8231 7.94247C16.5281 7.64742 16.1283 7.481 15.7111 7.47952ZM16.3861 13.7795C16.3846 14.8532 15.9574 15.8825 15.1982 16.6417C14.439 17.4009 13.4097 17.828 12.3361 17.8295C11.1998 17.8295 10.4123 17.5201 9.69231 16.8058C8.97231 16.0914 8.30294 14.9608 7.31294 12.8739L7.29606 12.8401C7.25058 12.7639 7.22114 12.6792 7.20953 12.5912C7.19793 12.5032 7.2044 12.4137 7.22856 12.3283C7.25089 12.2422 7.29028 12.1615 7.34439 12.091C7.39851 12.0205 7.46624 11.9615 7.54356 11.9176C7.6985 11.8282 7.88261 11.8039 8.05544 11.8501C8.14073 11.8726 8.22059 11.912 8.2902 11.9662C8.35981 12.0203 8.41772 12.088 8.46044 12.1651L9.69794 14.3026C9.74839 14.3875 9.82503 14.4537 9.91633 14.4912C10.0076 14.5287 10.1086 14.5356 10.2042 14.5108C10.2998 14.4858 10.3843 14.4296 10.4444 14.3511C10.5045 14.2727 10.5368 14.1765 10.5361 14.0776V8.15452C10.5361 7.9755 10.6072 7.80381 10.7338 7.67722C10.8604 7.55064 11.032 7.47952 11.2111 7.47952C11.3901 7.47952 11.5618 7.55064 11.6884 7.67722C11.8149 7.80381 11.8861 7.9755 11.8861 8.15452V11.9795C11.8861 12.0989 11.9335 12.2133 12.0179 12.2977C12.1023 12.3821 12.2167 12.4295 12.3361 12.4295C12.4554 12.4295 12.5699 12.3821 12.6543 12.2977C12.7387 12.2133 12.7861 12.0989 12.7861 11.9795V7.25452C12.7861 7.0755 12.8572 6.90381 12.9838 6.77722C13.1104 6.65064 13.282 6.57952 13.4611 6.57952C13.6401 6.57952 13.8118 6.65064 13.9384 6.77722C14.0649 6.90381 14.1361 7.0755 14.1361 7.25452V11.9795C14.1361 12.0989 14.1835 12.2133 14.2679 12.2977C14.3523 12.3821 14.4667 12.4295 14.5861 12.4295C14.7054 12.4295 14.8199 12.3821 14.9043 12.2977C14.9887 12.2133 15.0361 12.0989 15.0361 11.9795V9.05452C15.0361 8.8755 15.1072 8.70381 15.2338 8.57722C15.3604 8.45064 15.532 8.37952 15.7111 8.37952C15.8901 8.37952 16.0618 8.45064 16.1884 8.57722C16.3149 8.70381 16.3861 8.8755 16.3861 9.05452V13.7795Z" fill="#35383D"/>
</svg>
