<svg width="48" height="48" viewBox="0 0 48 48" fill="none" xmlns="http://www.w3.org/2000/svg">
<rect width="48" height="48" rx="24" fill="white"/>
<path d="M21.3831 27.6648C21.2312 27.7166 21.0679 27.724 20.9119 27.6861C20.756 27.6483 20.6139 27.5667 20.5021 27.4508C20.3929 27.3344 20.3173 27.1902 20.2836 27.0336C20.25 26.877 20.2594 26.7142 20.3111 26.5627L22.2217 21.0629L21.0966 19.5114C21.0597 19.4665 21.0135 19.4304 20.9612 19.4056C20.9089 19.3808 20.8518 19.368 20.794 19.368C20.7362 19.368 20.6792 19.3808 20.6269 19.4056C20.5746 19.4304 20.5284 19.4665 20.4915 19.5114L12.1271 27.8039C12.0728 27.856 12.034 27.9224 12.0151 27.9955C11.9961 28.0686 11.9977 28.1456 12.0198 28.2178C12.0418 28.29 12.0834 28.3547 12.1399 28.4044C12.1963 28.4541 12.2654 28.487 12.3394 28.4994L18.1669 29.4196C18.254 29.4329 18.3343 29.4747 18.3957 29.5385C18.457 29.6022 18.496 29.6845 18.5065 29.7727L19.1753 35.6469C19.1841 35.722 19.2135 35.7931 19.2601 35.8522C19.3068 35.9114 19.3689 35.9563 19.4394 35.9818C19.51 36.0074 19.5862 36.0126 19.6595 35.9969C19.7329 35.9812 19.8004 35.9453 19.8546 35.893L28.2509 27.5043C28.2938 27.4661 28.3282 27.4192 28.3517 27.3666C28.3753 27.314 28.3875 27.257 28.3875 27.1993C28.3875 27.1416 28.3753 27.0846 28.3517 27.032C28.3282 26.9795 28.2938 26.9325 28.2509 26.8944L26.8922 25.8244L21.3831 27.6648Z" fill="#105368"/>
<path d="M26.924 24.6902C27.1128 24.6901 27.296 24.7542 27.4441 24.8721L31.0744 27.6541C31.134 27.6998 31.2051 27.7279 31.2797 27.7351C31.3542 27.7424 31.4293 27.7286 31.4966 27.6953C31.5638 27.662 31.6205 27.6104 31.6603 27.5465C31.7001 27.4825 31.7214 27.4086 31.7219 27.3331V22.7321C31.7221 22.5928 31.7561 22.4557 31.8209 22.3326C31.8856 22.2096 31.9792 22.1043 32.0934 22.0259L35.8404 19.4044C35.9011 19.3609 35.9486 19.3013 35.9777 19.2323C36.0068 19.1632 36.0164 19.0874 36.0054 19.0132C35.9945 18.939 35.9633 18.8693 35.9155 18.8118C35.8676 18.7543 35.8049 18.7113 35.7343 18.6875L31.4353 17.2751C31.3026 17.2333 31.1824 17.1585 31.0859 17.0575C30.9895 16.9565 30.9198 16.8326 30.8833 16.6973L29.514 12.289C29.4917 12.2171 29.45 12.1528 29.3936 12.1034C29.3371 12.054 29.2682 12.0214 29.1944 12.0092C29.1207 11.9969 29.045 12.0056 28.9758 12.0343C28.9067 12.0629 28.8468 12.1103 28.8028 12.1713L26.1279 15.8948C26.0467 16.0082 25.9398 16.1004 25.8161 16.1637C25.6924 16.227 25.5554 16.2595 25.4167 16.2586L20.8205 16.1302C20.7465 16.1302 20.6739 16.1507 20.6106 16.1895C20.5474 16.2283 20.496 16.2839 20.462 16.3502C20.428 16.4165 20.4128 16.491 20.418 16.5654C20.4232 16.6398 20.4486 16.7114 20.4915 16.7722L23.2088 20.5172C23.2917 20.6271 23.3457 20.7563 23.3661 20.8928C23.3866 21.0292 23.3726 21.1687 23.3256 21.2983L21.8183 25.6425C21.7922 25.7146 21.7868 25.7927 21.8028 25.8678C21.8189 25.9429 21.8557 26.0118 21.909 26.0667C21.9623 26.1215 22.0299 26.16 22.1041 26.1778C22.1782 26.1955 22.2558 26.1917 22.3278 26.1668L26.6587 24.6902C26.7464 24.6748 26.8362 24.6748 26.924 24.6902Z" fill="#105368"/>
</svg>
