<svg width="48" height="48" viewBox="0 0 48 48" fill="none" xmlns="http://www.w3.org/2000/svg">
<rect width="48" height="48" rx="24" fill="white"/>
<g clip-path="url(#clip0_19182_203063)">
<path d="M25.0648 22.3509C24.9665 22.3457 24.8705 22.3191 24.7837 22.2729C24.6968 22.2267 24.6211 22.162 24.5619 22.0834L23.5668 20.6496L23.0211 22.3081C22.9868 22.3996 22.9339 22.4829 22.8658 22.5529C22.7976 22.6229 22.7157 22.678 22.6252 22.7147L20.9346 23.2069L22.3577 24.2769C22.4334 24.3372 22.4948 24.4136 22.5374 24.5006C22.5799 24.5876 22.6026 24.6829 22.6038 24.7798V26.5346L24.0269 25.4646C24.1082 25.4117 24.1999 25.3767 24.2959 25.362C24.3918 25.3472 24.4897 25.353 24.5833 25.379L26.2417 25.9675L25.6961 24.2983C25.6714 24.2023 25.6673 24.1022 25.6838 24.0045C25.7004 23.9068 25.7374 23.8137 25.7923 23.7312L26.8623 22.3402L25.0648 22.3509Z" fill="#105368"/>
<path d="M35.968 27.2729L34.4165 16.6478C34.3813 16.3975 34.2965 16.1567 34.1673 15.9395C34.038 15.7223 33.8668 15.533 33.6637 15.3826C33.4605 15.2322 33.2294 15.1238 32.9839 15.0636C32.7384 15.0034 32.4834 14.9927 32.2337 15.0321L13.6479 17.7285C13.1501 17.8003 12.7006 18.0649 12.3963 18.4653C12.092 18.8657 11.9574 19.3697 12.0215 19.8685L13.573 30.4936C13.6031 30.7476 13.684 30.9931 13.811 31.2152C13.938 31.4373 14.1084 31.6316 14.3122 31.7864C14.5159 31.9412 14.7487 32.0533 14.9968 32.1162C15.2448 32.179 15.5029 32.1912 15.7558 32.152L34.3416 29.445C34.5912 29.4096 34.8314 29.3252 35.0483 29.1968C35.2653 29.0684 35.4547 28.8984 35.6058 28.6966C35.7569 28.4948 35.8667 28.2652 35.9288 28.0208C35.991 27.7765 36.0043 27.5223 35.968 27.2729ZM28.2747 22.276L26.7874 24.202L27.5471 26.5239C27.5749 26.6341 27.5748 26.7496 27.5468 26.8598C27.5187 26.97 27.4637 27.0715 27.3866 27.1552C27.3044 27.2341 27.2019 27.2889 27.0905 27.3134C26.9792 27.3379 26.8632 27.3313 26.7554 27.2943L24.4549 26.4811L22.4433 27.8721C22.3332 27.947 22.2018 27.9845 22.0688 27.9791C21.9756 27.9809 21.8835 27.9588 21.8013 27.9149C21.6993 27.8626 21.6141 27.7827 21.5554 27.6843C21.4968 27.5859 21.467 27.473 21.4696 27.3585L21.5338 24.9296L19.5543 23.5921C19.4682 23.5198 19.4015 23.4271 19.3604 23.3224C19.3193 23.2177 19.305 23.1045 19.3189 22.9929C19.3363 22.8787 19.3858 22.7719 19.4616 22.6848C19.5373 22.5976 19.6363 22.5338 19.7469 22.5007L22.0795 21.8052L22.8285 19.494C22.8691 19.387 22.9368 19.2923 23.025 19.2191C23.1131 19.146 23.2187 19.0969 23.3314 19.0767C23.4439 19.0565 23.5598 19.0701 23.6646 19.1158C23.7693 19.1615 23.8582 19.2373 23.9199 19.3335L25.3002 21.3344H27.7397C27.853 21.3433 27.9625 21.379 28.0592 21.4385C28.156 21.4981 28.2372 21.5797 28.2961 21.6768C28.3407 21.7711 28.362 21.8747 28.3583 21.979C28.3546 22.0832 28.3259 22.1851 28.2747 22.276Z" fill="#105368"/>
</g>
<defs>
<clipPath id="clip0_19182_203063">
<rect width="24" height="17.1948" fill="white" transform="translate(12 15)"/>
</clipPath>
</defs>
</svg>
