<svg width="48" height="48" viewBox="0 0 48 48" fill="none" xmlns="http://www.w3.org/2000/svg">
<rect width="48" height="48" rx="24" fill="white"/>
<path d="M24.5005 12C21.7157 12 19.045 13.1134 17.0759 15.0953C15.1067 17.0772 14.0005 19.7652 14.0005 22.568V25.432C14.0005 28.2348 15.1067 30.9228 17.0759 32.9047C19.045 34.8866 21.7157 36 24.5005 36C25.8794 36 27.2447 35.7266 28.5187 35.1956C29.7926 34.6645 30.9501 33.886 31.9251 32.9047C32.9001 31.9234 33.6735 30.7584 34.2012 29.4762C34.7289 28.194 35.0005 26.8198 35.0005 25.432V22.5469C34.9949 19.7477 33.8862 17.0651 31.9177 15.0878C29.9492 13.1105 27.2816 12 24.5005 12ZM20.1745 18.2668C21.9595 17.6433 23.44 17.8864 24.4585 18.9855C26.443 21.0991 24.973 23.9736 23.9125 26.0449L23.6185 26.6262C23.5723 26.7045 23.5479 26.794 23.5479 26.8851C23.5479 26.9762 23.5723 27.0656 23.6185 27.144C23.7085 27.2604 23.8254 27.3529 23.9589 27.4137C24.0925 27.4744 24.2387 27.5016 24.385 27.4927C24.5251 27.5101 24.6672 27.4876 24.7952 27.4278C24.9233 27.368 25.0321 27.2734 25.1095 27.1546C25.1743 27.0347 25.2819 26.9441 25.4105 26.9009C25.5391 26.8578 25.6792 26.8653 25.8025 26.9221C25.8648 26.9494 25.921 26.9891 25.9676 27.0388C26.0143 27.0885 26.0505 27.1473 26.074 27.2114C26.0976 27.2756 26.108 27.3439 26.1046 27.4122C26.1013 27.4805 26.0842 27.5475 26.0545 27.609C25.8936 27.9091 25.6511 28.1568 25.3555 28.3234C25.0599 28.49 24.7233 28.5684 24.385 28.5495C24.0603 28.5595 23.7383 28.4873 23.4484 28.3396C23.1586 28.1919 22.9102 27.9734 22.726 27.7041C22.5895 27.4683 22.5176 27.2003 22.5176 26.9273C22.5176 26.6544 22.5895 26.3864 22.726 26.1506L23.02 25.5588C23.9965 23.6671 25.204 21.3316 23.734 19.7041C23.315 19.318 22.789 19.0697 22.2262 18.9923C21.6634 18.9149 21.0905 19.0121 20.584 19.2708C20.5185 19.2941 20.4491 19.3041 20.3798 19.3002C20.3104 19.2964 20.2425 19.2787 20.18 19.2482C20.1175 19.2177 20.0617 19.1751 20.0156 19.1227C19.9696 19.0704 19.9344 19.0094 19.912 18.9432C19.8641 18.8178 19.8645 18.679 19.9131 18.5539C19.9616 18.4287 20.0549 18.3264 20.1745 18.2668ZM18.568 22.6314C18.5188 22.5823 18.4797 22.5239 18.4531 22.4595C18.4264 22.3951 18.4127 22.326 18.4127 22.2563C18.4127 22.1865 18.4264 22.1175 18.4531 22.0531C18.4797 21.9887 18.5188 21.9302 18.568 21.8811C18.6151 21.8306 18.6721 21.7903 18.7353 21.7627C18.7985 21.7352 18.8666 21.721 18.9355 21.721C19.0044 21.721 19.0725 21.7352 19.1357 21.7627C19.1989 21.7903 19.2559 21.8306 19.303 21.8811C19.4406 22.0204 19.6042 22.131 19.7844 22.2064C19.9646 22.2819 20.1578 22.3207 20.353 22.3207C20.5482 22.3207 20.7414 22.2819 20.9216 22.2064C21.1018 22.131 21.2654 22.0204 21.403 21.8811C21.4518 21.8316 21.5099 21.7923 21.5738 21.7654C21.6378 21.7386 21.7064 21.7248 21.7757 21.7248C21.845 21.7248 21.9137 21.7386 21.9776 21.7654C22.0416 21.7923 22.0997 21.8316 22.1485 21.8811C22.2453 21.9817 22.2995 22.1162 22.2995 22.2563C22.2995 22.3963 22.2453 22.5309 22.1485 22.6314C21.6727 23.1038 21.0318 23.3694 20.3635 23.3712C20.0305 23.3734 19.7004 23.3092 19.3922 23.1822C19.084 23.0552 18.8039 22.868 18.568 22.6314ZM27.598 30.8851C27.5245 31.0013 26.8105 32.0264 24.448 32.0264C22.0855 32.0264 21.3505 30.9696 21.298 30.8851C21.223 30.7673 21.1975 30.6244 21.227 30.4877C21.2565 30.351 21.3387 30.2317 21.4555 30.1559C21.5704 30.0827 21.709 30.0572 21.8422 30.0848C21.9753 30.1124 22.0927 30.1909 22.1695 30.3038C22.1695 30.3038 22.726 30.9696 24.469 30.9696C26.212 30.9696 26.7685 30.3144 26.779 30.3038C26.8608 30.1936 26.9815 30.119 27.1162 30.0955C27.2509 30.0719 27.3895 30.1011 27.5035 30.177C27.6066 30.2602 27.6739 30.3802 27.6915 30.512C27.7091 30.6438 27.6756 30.7774 27.598 30.8851ZM30.433 22.6314C29.9572 23.1038 29.3163 23.3694 28.648 23.3712C27.9827 23.3701 27.3448 23.1041 26.8735 22.6314C26.8243 22.5823 26.7852 22.5239 26.7586 22.4595C26.7319 22.3951 26.7182 22.326 26.7182 22.2563C26.7182 22.1865 26.7319 22.1175 26.7586 22.0531C26.7852 21.9887 26.8243 21.9302 26.8735 21.8811C26.9206 21.8306 26.9776 21.7903 27.0408 21.7627C27.104 21.7352 27.1721 21.721 27.241 21.721C27.3099 21.721 27.378 21.7352 27.4412 21.7627C27.5044 21.7903 27.5614 21.8306 27.6085 21.8811C27.7446 22.023 27.9077 22.1359 28.0881 22.213C28.2685 22.29 28.4625 22.3298 28.6585 22.3298C28.8545 22.3298 29.0484 22.29 29.2288 22.213C29.4092 22.1359 29.5724 22.023 29.7085 21.8811C29.7573 21.8316 29.8154 21.7923 29.8793 21.7654C29.9433 21.7386 30.0119 21.7248 30.0812 21.7248C30.1505 21.7248 30.2192 21.7386 30.2831 21.7654C30.3471 21.7923 30.4052 21.8316 30.454 21.8811C30.5018 21.9316 30.5393 21.9912 30.5642 22.0563C30.589 22.1215 30.6008 22.1909 30.5989 22.2607C30.5969 22.3304 30.5813 22.3991 30.5528 22.4628C30.5243 22.5264 30.4836 22.5837 30.433 22.6314Z" fill="#105368"/>
</svg>
