<svg width="48" height="48" viewBox="0 0 48 48" fill="none" xmlns="http://www.w3.org/2000/svg">
<rect width="48" height="48" rx="24" fill="white"/>
<g clip-path="url(#clip0_19182_203052)">
<path d="M26.7002 32.0671V35.1829C26.7002 35.3977 26.784 35.6039 26.9336 35.7568C27.0832 35.9098 27.2865 35.9971 27.4995 36H31.0962C31.3092 35.9971 31.5125 35.9098 31.6621 35.7568C31.8117 35.6039 31.8955 35.3977 31.8955 35.1829V32.0671C31.8955 31.9602 31.8534 31.8577 31.7785 31.7821C31.7035 31.7065 31.6019 31.6641 31.4959 31.6641H27.0998C26.9947 31.6668 26.8946 31.7102 26.8203 31.7852C26.7459 31.8602 26.7029 31.9611 26.7002 32.0671Z" fill="#105368"/>
<path d="M14.1069 25.4327C14.513 25.2117 14.9786 25.1277 15.4355 25.193C17.3797 25.3782 17.7685 24.3324 17.5957 23.6678C17.571 23.6021 17.5643 23.5308 17.5762 23.4616C17.5882 23.3923 17.6184 23.3276 17.6636 23.2741C17.7089 23.2207 17.7676 23.1805 17.8335 23.1577C17.8995 23.135 17.9703 23.1306 18.0385 23.1449C18.9511 23.304 19.8265 23.6328 20.62 24.1145C21.5479 24.632 22.2807 25.4438 22.7046 26.4241C22.8069 26.6873 22.8794 26.9614 22.9206 27.2411C22.9269 27.2971 22.9211 27.3538 22.9037 27.4073C22.8862 27.4608 22.8576 27.5099 22.8197 27.5512C22.7817 27.5926 22.7354 27.6252 22.6839 27.6469C22.6324 27.6686 22.5768 27.6788 22.521 27.6769H13.2753C13.2149 27.6788 13.1549 27.6666 13.1 27.641C13.0452 27.6155 12.997 27.5775 12.9592 27.5299C12.9215 27.4823 12.8953 27.4265 12.8826 27.3669C12.87 27.3074 12.8713 27.2456 12.8864 27.1866C12.9605 26.8258 13.107 26.484 13.3169 26.1824C13.5268 25.8808 13.7957 25.6256 14.1069 25.4327Z" fill="#105368"/>
<path d="M12 30.8906V29.6051C12 29.4992 12.0207 29.3944 12.0608 29.2966C12.101 29.1987 12.1599 29.1099 12.2341 29.035C12.3083 28.9602 12.3964 28.9008 12.4934 28.8603C12.5904 28.8197 12.6943 28.7989 12.7993 28.7989H22.9307C23.1437 28.7989 23.3481 28.8835 23.4997 29.0343C23.6513 29.1852 23.7379 29.3903 23.7408 29.6051V31.9582C23.738 33.0255 23.3178 34.0486 22.5716 34.8054C21.8254 35.5621 20.8133 35.9914 19.7552 36H16.0288C14.966 36 13.9468 35.5742 13.1953 34.8162C12.4438 34.0582 12.0216 33.0302 12.0216 31.9582L12 30.8906Z" fill="#105368"/>
<path d="M27.8022 21.064C27.8051 19.4902 28.4262 17.9817 29.5295 16.8688C30.6329 15.756 32.1285 15.1295 33.6888 15.1266C34.3168 15.127 34.9405 15.23 35.5358 15.4317L35.9787 12.9478C35.9992 12.8316 35.9942 12.7123 35.9641 12.5983C35.9339 12.4843 35.8793 12.3784 35.8041 12.288C35.7289 12.1976 35.635 12.1249 35.5289 12.0752C35.4228 12.0254 35.3072 11.9997 35.1902 12H23.5142C23.3985 11.9987 23.2838 12.0228 23.1782 12.0706C23.0726 12.1183 22.9785 12.1887 22.9025 12.2768C22.8265 12.3648 22.7704 12.4685 22.738 12.5806C22.7056 12.6927 22.6977 12.8105 22.7149 12.926C23.2766 16.4448 25.21 28.7226 25.2964 29.4199C25.367 29.7385 25.5462 30.0221 25.8027 30.2212C26.0593 30.4203 26.3771 30.5222 26.7005 30.5093H31.8419C32.1388 30.5018 32.4235 30.3882 32.645 30.1886C32.8666 29.9891 33.0107 29.7166 33.0516 29.4199L33.4836 27.0013C31.9582 26.9477 30.5132 26.2985 29.4532 25.1908C28.3933 24.0831 27.8013 22.6035 27.8022 21.064Z" fill="#105368"/>
<path d="M28.8818 21.0639C28.8818 22.3478 29.3867 23.5792 30.2858 24.4881C31.1849 25.397 32.4046 25.909 33.6775 25.9119L35.3409 16.5319C34.8135 16.3268 34.2536 16.2197 33.6883 16.216C32.4144 16.2189 31.1935 16.7306 30.2928 17.6391C29.392 18.5477 28.8847 19.7791 28.8818 21.0639Z" fill="#105368"/>
</g>
<defs>
<clipPath id="clip0_19182_203052">
<rect width="24" height="24" fill="white" transform="translate(12 12)"/>
</clipPath>
</defs>
</svg>
