<svg width="150" height="154" viewBox="0 0 150 154" fill="none" xmlns="http://www.w3.org/2000/svg">
<g clip-path="url(#clip0_21925_180277)">
<path d="M42.8252 74.4175C31.6416 99.3999 40.1311 109.636 57.4099 121.151C82.5828 137.927 139.505 134.59 145.097 98.6911C152.385 51.9086 146.498 31.8502 117.375 24.6778C104.204 21.4343 57.9932 15.3278 45.2058 31.7352C33.3713 51.2113 54.0088 49.4351 42.8252 74.4175Z" fill="#E9CCCC"/>
<path d="M51.3139 138.131C71.0359 144.331 89.4015 142.528 106.968 122.472C130.848 95.2077 122.105 69.1467 108.437 53.2713C93.0752 35.4296 81.0443 34.9778 49.3326 51.6233C17.6208 68.2688 27.1921 76.6845 22.9254 97.6762C18.6588 118.668 45.3543 136.257 51.3139 138.131Z" fill="#E3EEF2"/>
<path d="M91 78.5L70 99.5L59.5 89" stroke="#105368" stroke-width="3" stroke-linecap="round" stroke-linejoin="round"/>
<path d="M107.535 55.5541C107.802 54.5702 109.198 54.5702 109.465 55.5541L110.485 59.3117C110.578 59.6541 110.846 59.9217 111.188 60.0147L114.946 61.0349C115.93 61.3021 115.93 62.6979 114.946 62.9651L111.188 63.9853C110.846 64.0783 110.578 64.3459 110.485 64.6883L109.465 68.4459C109.198 69.4298 107.802 69.4298 107.535 68.4459L106.515 64.6883C106.422 64.3459 106.154 64.0783 105.812 63.9853L102.054 62.9651C101.07 62.6979 101.07 61.3021 102.054 61.0349L105.812 60.0147C106.154 59.9217 106.422 59.6541 106.515 59.3116L107.535 55.5541Z" fill="#4C7E8E"/>
<path d="M123.535 53.5541C123.802 52.5702 125.198 52.5702 125.465 53.5541L126.058 55.7387C126.151 56.0812 126.419 56.3488 126.761 56.4418L128.946 57.0349C129.93 57.3021 129.93 58.6979 128.946 58.9651L126.761 59.5582C126.419 59.6512 126.151 59.9188 126.058 60.2613L125.465 62.4459C125.198 63.4298 123.802 63.4298 123.535 62.4459L122.942 60.2613C122.849 59.9188 122.581 59.6512 122.239 59.5582L120.054 58.9651C119.07 58.6979 119.07 57.3021 120.054 57.0349L122.239 56.4418C122.581 56.3488 122.849 56.0812 122.942 55.7387L123.535 53.5541Z" fill="#4C7E8E"/>
<path d="M115.535 40.5541C115.802 39.5702 117.198 39.5702 117.465 40.5541L118.058 42.7387C118.151 43.0812 118.419 43.3488 118.761 43.4418L120.946 44.0349C121.93 44.3021 121.93 45.6979 120.946 45.9651L118.761 46.5582C118.419 46.6512 118.151 46.9188 118.058 47.2613L117.465 49.4459C117.198 50.4298 115.802 50.4298 115.535 49.4459L114.942 47.2613C114.849 46.9188 114.581 46.6512 114.239 46.5582L112.054 45.9651C111.07 45.6979 111.07 44.3021 112.054 44.0349L114.239 43.4418C114.581 43.3488 114.849 43.0812 114.942 42.7387L115.535 40.5541Z" fill="#4C7E8E"/>
<path d="M26.4361 102.858C28.1306 99.608 31.4708 95.9614 34.5971 96.6162C38.1347 97.3572 43.3843 101.443 43.1666 109.495C42.949 117.546 61.52 117.379 59.476 131.48C58.9259 135.275 43.1271 151.102 33.3381 138.924C27.5704 131.749 18.9156 133.162 13.6848 130.482C8.4539 127.802 13.6501 116.332 18.2079 114.719C22.7657 113.105 24.1216 107.296 26.4361 102.858Z" fill="#F5C47A"/>
</g>
<defs>
<clipPath id="clip0_21925_180277">
<rect width="149" height="154" fill="white" transform="translate(0.5)"/>
</clipPath>
</defs>
</svg>
    